<?xml version="1.0" standalone="no"?>
<!DOCTYPE svg PUBLIC "-//W3C//DTD SVG 20010904//EN"
 "http://www.w3.org/TR/2001/REC-SVG-20010904/DTD/svg10.dtd">
<svg version="1.0" xmlns="http://www.w3.org/2000/svg"
 width="300.000000pt" height="300.000000pt" viewBox="0 0 300.000000 300.000000"
 preserveAspectRatio="xMidYMid meet">
<metadata>
Created by potrace 1.14, written by Peter Selinger 2001-2017
</metadata>
<g transform="translate(0.000000,300.000000) scale(0.100000,-0.100000)"
fill="#000000" stroke="none">
<path d="M2359 2858 c-5 -18 -6 -38 -1 -34 7 8 12 36 6 36 -2 0 -4 -1 -5 -2z"/>
<path d="M2307 2813 c3 -7 9 -13 13 -13 4 0 10 6 13 13 3 7 -3 13 -13 13 -10
0 -16 -6 -13 -13z"/>
<path d="M2255 2799 c17 -27 10 -59 -20 -95 -32 -36 -34 -37 -108 -38 -59 -1
-80 -6 -96 -20 -12 -11 -21 -15 -21 -10 0 6 -9 10 -20 11 -11 1 -18 -2 -15 -8
4 -5 1 -9 -4 -9 -19 0 -12 27 12 44 20 15 20 16 1 7 -12 -6 -25 -7 -29 -3 -3
4 -6 3 -5 -3 5 -21 0 -45 -9 -45 -6 0 -8 8 -6 18 2 11 -3 19 -10 19 -8 0 -12
-4 -10 -8 3 -4 -1 -9 -9 -12 -17 -7 -50 26 -39 38 5 4 -2 2 -14 -4 -13 -6 -23
-14 -23 -17 0 -3 5 -2 10 1 16 10 40 -14 33 -32 -5 -13 -2 -15 11 -10 12 5 15
3 10 -6 -4 -6 -4 -9 1 -5 4 4 17 3 28 -3 12 -7 17 -7 13 -1 -3 5 0 12 8 15 9
4 12 0 9 -13 -5 -18 -43 -25 -43 -7 0 4 -5 5 -10 2 -6 -4 -7 -11 -3 -18 3 -6
-9 -2 -28 9 -19 11 -44 20 -56 19 -13 -1 -23 2 -23 7 0 5 8 8 18 6 19 -3 24
24 4 28 -7 1 -8 0 -2 -3 17 -8 11 -19 -12 -19 -13 0 -26 4 -30 10 -4 5 -13 2
-23 -7 -15 -16 -15 -17 6 -15 29 4 36 -18 10 -31 -14 -8 -22 -8 -27 1 -4 6 -3
8 2 5 6 -3 16 -2 23 2 9 6 4 9 -13 9 -29 0 -30 -2 -16 -28 8 -15 6 -22 -10
-33 -11 -7 -18 -16 -15 -19 11 -11 -62 -79 -90 -84 -16 -3 -35 -10 -42 -16
-11 -8 -12 -7 -7 8 5 18 5 18 -9 2 -19 -24 -25 -23 -23 5 1 13 -4 21 -11 19
-7 -1 -13 2 -13 6 0 4 6 14 13 22 7 9 4 8 -8 -1 -22 -18 -49 -14 -38 4 4 7 -5
4 -20 -5 -34 -23 -44 -23 -23 1 15 17 15 19 -1 32 -16 13 -17 12 -4 -3 11 -15
11 -19 -2 -24 -9 -3 -18 -11 -20 -18 -6 -14 30 -19 38 -5 9 14 22 11 22 -6 0
-10 -9 -13 -29 -11 -16 2 -31 -1 -34 -5 -3 -5 -9 -7 -13 -4 -5 2 -18 -7 -31
-20 -13 -13 -27 -22 -31 -19 -8 5 -13 -10 -10 -29 1 -5 -3 -6 -8 -3 -5 4 -12
2 -16 -4 -3 -5 0 -10 7 -10 9 0 9 -3 -2 -10 -12 -8 -12 -10 -1 -10 8 0 12 -2
9 -5 -3 -3 -16 -1 -30 5 -28 13 -35 43 -8 35 10 -3 23 2 30 10 11 14 9 20 -15
43 -16 15 -21 18 -12 6 15 -18 15 -23 4 -32 -14 -12 -27 -7 -27 10 0 5 5 6 12
2 7 -5 8 -3 3 6 -6 10 -10 10 -20 -3 -9 -13 -15 -14 -25 -4 -10 9 -10 7 0 -7
14 -18 13 -19 -5 -11 -11 4 -33 8 -48 7 -16 -1 -30 5 -34 14 -3 8 -13 12 -23
9 -14 -4 -17 0 -15 19 3 26 -19 27 -28 2 -7 -17 49 -59 65 -50 7 4 8 3 4 -4
-5 -9 0 -9 19 -2 34 13 35 13 29 -4 -3 -8 -14 -13 -24 -11 -13 3 -17 -1 -13
-12 5 -12 7 -12 14 -1 7 10 9 10 9 -2 0 -13 1 -13 10 0 7 12 10 12 10 1 0 -7
6 -11 15 -7 26 10 16 -3 -15 -19 -27 -14 -29 -14 -23 2 4 11 3 14 -5 9 -7 -4
-15 -1 -18 8 -3 9 -11 13 -17 9 -6 -3 -7 -1 -3 5 9 15 -6 16 -21 1 -7 -7 -13
-7 -17 0 -4 5 -14 8 -24 5 -11 -4 -8 2 8 16 14 12 18 20 10 17 -9 -3 -24 1
-35 9 -10 8 -13 14 -7 14 7 0 12 5 12 10 0 6 -6 10 -14 10 -8 0 -17 9 -21 19
-3 11 -15 23 -25 26 -13 4 -17 12 -13 23 7 18 5 17 -17 -12 -8 -11 -10 -17 -3
-13 6 4 14 3 18 -2 3 -6 -6 -8 -21 -5 -15 3 -23 1 -20 -5 8 -12 -23 -43 -35
-36 -13 9 -11 -9 3 -25 11 -12 10 -12 -4 -2 -18 14 -22 10 -32 -33 -4 -16 -18
-40 -32 -53 -13 -14 -21 -28 -18 -33 3 -5 2 -8 -3 -7 -4 2 -9 -1 -10 -6 -3
-16 -26 -25 -42 -17 -19 10 -43 3 -35 -10 3 -5 1 -9 -4 -9 -5 0 -9 11 -9 25 0
14 3 25 8 25 5 0 9 -4 9 -8 0 -5 7 -9 15 -9 8 0 12 5 9 11 -3 6 2 2 10 -8 9
-11 17 -15 17 -8 2 21 4 27 12 40 5 7 13 9 19 6 6 -4 5 2 -2 15 -6 12 -15 19
-21 16 -5 -4 -9 2 -10 12 0 14 -2 15 -6 3 -9 -22 -30 -40 -38 -32 -4 4 -3 -3
4 -15 10 -21 9 -22 -19 -18 -16 2 -33 -1 -36 -7 -4 -7 -2 -8 4 -4 15 9 15 1 1
-26 -8 -15 -8 -19 0 -14 6 4 11 3 11 -2 0 -6 -7 -12 -15 -16 -9 -3 -15 0 -15
9 0 22 -17 26 -31 7 -13 -16 -13 -16 5 -2 18 14 19 13 13 -2 -6 -16 3 -23 25
-19 5 0 6 -9 4 -22 -2 -12 1 -28 7 -35 5 -7 7 -15 4 -19 -4 -3 6 -18 21 -33
16 -14 26 -32 24 -38 -2 -7 2 -10 10 -9 7 2 10 2 6 0 -5 -3 -8 -9 -8 -14 0 -6
5 -7 11 -3 8 5 8 1 0 -14 -13 -24 -14 -35 -3 -29 4 3 8 -7 9 -21 l1 -27 -13
24 c-9 18 -14 20 -19 10 -3 -8 -3 -3 0 11 5 21 4 23 -7 12 -8 -7 -15 -17 -15
-22 -1 -6 -2 -13 -3 -16 0 -4 -8 -1 -17 7 -13 11 -15 11 -14 -2 5 -31 -1 -39
-27 -39 -20 0 -24 3 -14 9 11 7 11 9 0 13 -9 3 -8 6 4 11 11 4 17 1 17 -9 0
-8 4 -12 10 -9 6 4 4 16 -6 31 -17 26 -13 30 15 15 13 -7 18 -6 18 4 0 7 -7
11 -16 8 -14 -4 -14 -3 -1 5 8 6 18 8 24 5 5 -4 6 0 1 8 -8 12 -6 12 8 0 11
-9 17 -10 17 -2 0 6 -5 11 -11 11 -5 0 -8 4 -4 9 3 5 1 12 -5 16 -6 4 -7 11
-4 17 4 7 2 8 -4 4 -7 -4 -10 1 -7 14 2 11 0 18 -6 15 -5 -4 -6 -11 -3 -17 4
-6 -1 -8 -16 -3 -15 5 -20 4 -16 -4 4 -6 14 -11 22 -11 8 0 12 -5 9 -11 -5 -7
-14 -5 -29 5 -17 11 -23 11 -23 2 0 -7 5 -13 11 -14 6 0 20 -3 31 -6 11 -2 22
-5 25 -5 3 -1 -2 -5 -10 -11 -9 -6 -20 -5 -30 3 -13 11 -13 10 0 -7 14 -18 13
-19 -2 -13 -9 3 -22 -1 -29 -9 -10 -12 -10 -15 1 -12 7 2 15 -3 18 -11 3 -8 0
-11 -7 -7 -6 4 -11 2 -11 -4 0 -6 -5 -8 -12 -4 -10 6 -10 4 0 -8 11 -14 10
-18 -4 -26 -19 -11 -28 -42 -12 -42 6 0 7 7 4 16 -3 8 -2 12 4 9 6 -3 10 -1
10 5 0 7 5 8 13 3 6 -4 15 -8 19 -8 3 0 9 -3 13 -7 4 -3 -5 -5 -19 -4 -23 3
-26 0 -20 -17 5 -16 3 -19 -12 -13 -13 5 -24 0 -36 -16 -12 -15 -16 -17 -12
-5 3 9 1 17 -5 17 -6 0 -11 -6 -11 -12 0 -7 -5 -5 -11 5 -6 9 -14 15 -20 12
-5 -4 -9 -1 -9 5 0 6 -4 9 -9 5 -6 -3 -15 5 -21 17 -11 23 -11 23 6 3 15 -18
16 -18 10 -2 -4 13 -2 17 6 14 7 -2 12 -10 10 -16 -1 -6 2 -11 8 -11 5 0 10 6
10 13 0 8 3 7 10 -3 14 -23 49 -22 45 2 -5 26 5 49 18 41 6 -4 7 -1 2 7 -6 10
-11 10 -20 -3 -15 -21 -24 -21 -42 1 -13 15 -13 15 -3 -5 6 -13 14 -23 19 -23
4 0 8 -7 8 -15 0 -15 -17 -22 -17 -7 0 4 -9 18 -20 32 -12 15 -18 18 -14 8 9
-26 -5 -22 -16 5 l-9 22 0 -23 c-1 -13 -5 -20 -11 -17 -6 4 -7 11 -4 17 4 6 2
8 -4 4 -6 -3 -9 -19 -7 -34 4 -23 2 -22 -14 10 -23 50 -33 58 -22 20 9 -29 8
-30 -16 -26 -18 4 -23 1 -17 -8 5 -7 -3 -5 -19 5 -14 9 -30 17 -34 17 -4 0 0
-5 10 -11 12 -7 17 -21 15 -43 -1 -17 2 -38 6 -45 6 -9 4 -12 -5 -9 -8 3 -14
14 -13 24 1 15 -6 20 -25 21 -23 2 -24 1 -6 -7 11 -5 16 -9 11 -9 -5 -1 -4 -7
2 -13 13 -17 9 -52 -7 -72 -12 -14 -11 -16 5 -9 17 6 18 5 4 -12 -8 -10 -10
-16 -3 -12 18 11 22 -15 6 -48 -12 -25 -12 -27 0 -13 8 10 17 15 20 11 4 -3 1
-13 -6 -21 -10 -13 -9 -14 2 -7 11 6 13 4 8 -8 -4 -12 -1 -15 11 -11 16 5 16
5 0 -8 -15 -13 -15 -15 3 -26 11 -7 17 -17 14 -22 -3 -6 -1 -10 4 -10 6 0 10
-11 9 -24 -1 -14 -6 -22 -10 -20 -4 3 -8 0 -8 -7 0 -8 -5 -7 -17 2 -16 12 -17
12 -6 -2 7 -9 9 -20 5 -24 -4 -5 -1 -5 5 -1 7 4 13 2 13 -3 0 -6 5 -11 11 -11
8 0 8 5 -1 15 -9 10 -9 15 -1 15 10 0 12 -5 11 -25 -1 -11 31 -37 48 -39 9 -2
18 -8 18 -14 1 -7 3 -14 4 -17 1 -3 4 -14 5 -25 1 -11 4 -23 5 -27 1 -5 2 -12
1 -17 -1 -5 6 -18 16 -29 10 -11 12 -17 6 -13 -15 8 -18 -10 -4 -18 8 -5 8
-27 1 -46 -6 -15 -4 -37 5 -49 7 -11 7 -13 -2 -8 -6 4 -13 2 -15 -3 -2 -6 -18
-13 -36 -15 -18 -2 -30 0 -28 4 3 4 0 16 -7 25 -12 17 -14 17 -28 -1 -13 -16
-12 -17 2 -5 14 11 17 9 17 -14 0 -18 -4 -22 -11 -15 -6 6 -15 11 -21 11 -5 0
-1 -7 10 -16 18 -15 18 -15 -3 -9 -14 4 -23 2 -23 -5 0 -6 5 -8 11 -4 7 4 10
1 7 -7 -3 -8 -12 -13 -20 -11 -9 1 -22 -6 -29 -15 -12 -16 -12 -17 1 -7 19 15
48 14 54 -1 3 -8 -4 -10 -20 -7 -13 2 -30 -1 -38 -7 -11 -9 -16 -9 -22 0 -5 8
-3 9 6 4 8 -5 11 -4 6 3 -8 13 -36 5 -36 -10 0 -5 5 -6 10 -3 13 8 13 -5 -2
-38 -14 -28 -23 -33 -33 -17 -3 6 -12 10 -18 10 -7 0 1 -9 16 -19 33 -21 36
-32 10 -43 -16 -7 -16 -8 2 -5 14 2 20 9 19 25 -1 12 3 22 8 22 6 0 8 -6 5
-14 -3 -8 1 -20 8 -26 8 -7 13 -16 10 -20 -3 -4 2 -13 10 -20 8 -7 12 -16 10
-21 -7 -10 30 -31 38 -22 3 3 -4 -15 -16 -40 -12 -25 -26 -42 -31 -39 -5 3 -6
0 -2 -6 3 -6 16 -9 27 -7 15 3 19 0 15 -10 -3 -8 -1 -17 3 -19 5 -3 8 5 7 17
-1 12 -7 21 -14 19 -19 -3 -14 23 7 42 19 17 20 17 35 -12 14 -27 14 -31 0
-36 -12 -4 -13 -10 -6 -19 6 -6 10 -16 10 -22 0 -5 6 -11 14 -13 9 -2 8 0 -2
7 -8 6 -11 11 -6 11 5 0 3 7 -4 15 -8 9 -9 15 -2 15 14 0 43 -41 36 -52 -3 -4
-1 -8 5 -8 5 0 11 6 14 13 2 6 8 8 13 4 5 -5 0 -15 -11 -24 -14 -10 -15 -14
-5 -13 27 4 41 0 35 -9 -3 -6 2 -14 11 -19 16 -9 15 -11 -4 -28 -12 -9 -18
-22 -15 -27 4 -6 -3 -8 -17 -4 -16 4 -20 3 -12 -5 13 -13 46 -2 37 12 -3 5 -2
10 3 10 20 0 21 -29 1 -35 -10 -4 -17 -10 -14 -15 3 -4 -2 -13 -10 -20 -17
-14 -20 -35 -4 -24 7 4 10 1 7 -7 -3 -8 -11 -13 -17 -11 -7 1 -9 -2 -5 -9 5
-9 13 -5 26 10 11 15 18 18 18 9 0 -8 -5 -19 -10 -26 -6 -6 -7 -10 -4 -8 3 3
14 -3 24 -12 14 -11 16 -20 9 -33 -14 -26 -11 -36 5 -14 8 11 20 16 29 12 9
-3 19 -1 23 5 5 7 11 6 19 -5 7 -9 21 -15 33 -12 12 2 24 -1 28 -6 4 -6 10 -6
19 1 10 8 15 8 20 0 5 -8 10 -8 20 0 9 8 15 8 20 0 3 -6 11 -7 17 -4 6 4 8 2
4 -4 -3 -6 -2 -13 4 -17 5 -3 10 -1 10 4 0 6 5 11 11 11 5 0 7 -5 3 -12 -5 -8
-2 -9 9 -5 9 3 19 2 23 -4 3 -6 13 -8 21 -5 8 3 11 1 8 -4 -5 -9 7 -14 26 -12
11 2 71 -69 74 -86 1 -10 9 -15 16 -14 8 2 11 0 7 -3 -4 -4 -3 -17 3 -28 8
-14 8 -18 0 -13 -6 4 -11 2 -11 -3 0 -6 -3 -10 -7 -10 -5 1 -15 1 -23 0 -13
-1 -13 -2 0 -11 9 -5 19 -5 27 2 17 13 17 -4 1 -21 -11 -11 -10 -12 1 -6 11 6
13 2 8 -21 -6 -29 -6 -29 5 -4 7 14 17 28 23 32 6 5 5 8 -2 8 -7 0 -13 5 -13
12 0 6 9 3 20 -7 22 -20 68 -26 88 -11 6 4 12 5 12 0 0 -5 4 -4 8 3 4 6 16 13
27 15 11 1 23 7 26 11 3 4 17 10 32 12 24 5 25 3 22 -27 -4 -45 -4 -44 -13
-33 -4 6 -14 15 -22 22 -13 10 -16 9 -16 -6 0 -12 5 -17 15 -13 10 4 12 1 6
-9 -4 -8 -5 -11 0 -7 4 4 15 2 23 -5 10 -7 13 -8 9 -1 -4 7 4 19 18 28 14 9
25 12 25 7 0 -6 -8 -15 -17 -20 -10 -6 -13 -11 -6 -11 6 0 15 5 18 10 4 6 11
8 16 5 5 -3 6 2 2 11 -5 13 -3 15 7 9 8 -5 11 -4 6 3 -3 6 -15 9 -25 7 -10 -2
-24 1 -32 6 -11 7 -11 9 -1 9 7 0 11 4 8 9 -8 13 19 8 36 -7 8 -6 17 -9 20 -7
3 3 4 -12 3 -33 -2 -39 -2 -40 32 -37 18 1 36 5 39 8 4 4 14 2 23 -3 12 -6 20
-4 28 9 9 14 8 18 -3 18 -7 0 -11 -4 -8 -9 3 -4 -2 -8 -11 -8 -9 0 -14 4 -11
8 3 5 -1 9 -9 9 -8 0 -12 -4 -10 -8 6 -9 -21 -20 -29 -12 -10 10 -7 25 3 18 5
-3 13 0 17 6 5 8 3 9 -6 4 -9 -5 -11 -4 -6 4 5 7 13 8 19 4 11 -7 41 -8 85 -4
7 0 10 6 6 12 -4 8 -1 8 12 2 11 -6 30 -7 44 -3 25 6 25 6 3 12 -12 3 -24 1
-27 -6 -2 -6 -5 -3 -5 7 -1 14 5 16 26 12 16 -2 29 -9 31 -15 2 -5 8 -10 14
-10 6 0 5 6 -2 15 -7 9 -10 18 -6 22 3 4 12 -1 19 -9 9 -12 17 -13 32 -7 18 9
18 9 -3 5 -15 -3 -22 0 -19 7 4 13 47 19 47 7 0 -4 12 -12 26 -18 15 -7 22
-17 18 -24 -4 -6 -3 -8 3 -5 5 3 24 -3 42 -14 31 -19 58 -18 45 2 -3 5 -9 7
-14 4 -12 -7 -41 6 -34 16 3 5 -1 6 -9 3 -9 -3 -14 1 -14 13 0 36 -3 42 -23
38 -13 -3 -18 0 -14 7 4 6 3 8 -4 4 -6 -3 -14 -2 -17 4 -5 8 -11 8 -20 0 -8
-7 -19 -9 -24 -6 -5 4 -12 2 -16 -4 -4 -6 -11 -8 -16 -5 -5 4 -9 0 -9 -7 0
-10 -3 -9 -11 2 -9 13 -10 13 -6 -2 5 -15 1 -16 -33 -8 -3 0 2 6 11 13 9 7 17
15 17 20 1 4 5 7 8 6 4 0 11 5 16 13 7 10 8 9 4 -4 -6 -21 -5 -22 28 -7 14 7
22 17 19 23 -4 6 0 5 9 -2 13 -10 17 -10 21 0 4 11 6 10 6 0 1 -7 5 -11 10 -8
5 4 20 -7 33 -23 68 -85 69 -86 62 -66 -6 18 -5 18 13 -3 12 -12 25 -22 29
-21 18 3 34 -1 34 -9 0 -5 -7 -9 -15 -9 -8 0 -12 4 -9 9 10 15 -3 8 -17 -9 -7
-10 -10 -15 -5 -11 4 4 19 -5 33 -20 13 -15 22 -22 19 -15 -4 6 2 13 11 16 10
2 7 4 -6 3 -13 -1 -26 4 -28 10 -6 19 58 10 72 -9 10 -13 14 -15 17 -5 4 11 8
10 21 -1 11 -9 17 -10 17 -2 0 6 -5 11 -11 11 -5 0 -7 5 -4 10 4 6 12 7 18 3
18 -11 37 -12 37 -2 0 5 -5 9 -10 9 -14 0 -7 104 7 122 6 7 11 16 10 20 -1 3
2 10 7 15 5 5 6 2 1 -6 -5 -9 -4 -12 4 -10 7 3 11 7 9 11 -2 3 5 15 15 25 9
11 14 23 10 27 -4 4 1 4 11 0 14 -5 17 -4 12 4 -5 8 2 12 19 12 17 0 25 5 23
14 -2 8 2 15 7 15 9 1 10 -8 6 -38 0 -5 -9 -8 -18 -7 -23 4 -54 -15 -46 -28 3
-5 -2 -15 -12 -23 -25 -17 -27 -39 -4 -39 10 0 16 2 13 5 -2 3 6 11 18 18 22
13 22 14 1 8 -20 -5 -21 -4 -10 19 6 13 15 22 19 20 3 -2 10 0 13 6 5 8 11 8
21 0 7 -7 19 -10 26 -7 8 4 7 6 -4 6 -11 1 -15 6 -12 16 5 13 9 13 22 3 10 -9
13 -9 9 -1 -4 7 1 14 13 18 22 7 22 32 1 27 -7 -1 -10 1 -7 6 3 5 -1 9 -9 9
-13 0 -12 -4 2 -19 9 -10 11 -18 5 -18 -10 0 -32 30 -32 44 0 4 14 4 31 1 17
-3 28 -2 25 3 -3 5 7 8 22 7 15 -1 34 4 44 12 14 13 20 12 42 -2 16 -11 26
-13 26 -6 0 6 -7 11 -14 11 -11 0 -14 11 -13 39 1 22 -1 37 -5 35 -8 -5 -2 36
7 44 3 3 8 2 12 -2 4 -4 1 -11 -6 -15 -9 -6 -4 -8 15 -8 16 0 23 2 16 4 -6 3
-10 9 -6 14 3 5 0 9 -6 9 -6 0 -8 5 -5 10 4 6 12 7 18 3 7 -3 4 3 -6 14 -16
19 -14 33 5 33 5 0 6 -4 3 -10 -3 -5 -1 -10 5 -10 6 0 10 7 8 16 -2 10 3 19
10 21 8 3 10 -1 6 -14 -6 -16 -5 -16 9 2 18 23 13 37 -9 28 -8 -3 -14 -2 -13
3 3 20 -2 34 -12 34 -8 0 -8 -5 1 -15 8 -9 8 -15 2 -15 -6 0 -13 6 -15 13 -4
9 -6 9 -6 -1 -1 -7 -5 -11 -10 -7 -5 3 -13 0 -17 -6 -5 -8 -3 -9 6 -4 10 6 12
4 6 -11 -13 -31 -18 -71 -7 -55 5 8 11 9 15 3 8 -14 -11 -25 -26 -16 -6 4 -8
3 -4 -4 3 -6 1 -14 -6 -18 -7 -4 -10 -4 -6 1 4 4 2 15 -5 23 -9 13 -9 14 1 8
6 -4 12 -3 12 3 0 5 -5 13 -10 16 -6 4 -8 11 -4 16 3 5 10 7 15 4 5 -4 9 1 9
10 0 9 -5 13 -11 10 -6 -5 -6 0 1 12 7 10 24 24 38 31 22 10 29 9 45 -6 19
-16 20 -16 8 6 -7 13 -10 26 -7 30 3 3 6 0 6 -6 0 -14 21 -12 33 3 5 6 6 1 2
-10 -12 -33 -11 -48 3 -51 7 -1 8 0 2 3 -5 2 -10 8 -10 13 0 12 38 19 44 9 2
-5 3 -4 2 3 -2 7 -11 12 -20 10 -15 -3 -16 0 -6 18 6 11 8 26 4 32 -4 6 -3 8
3 5 11 -7 45 28 36 37 -3 3 -1 12 5 19 7 8 8 18 4 22 -4 5 -2 5 5 1 6 -3 18 3
26 14 9 13 20 18 31 14 12 -5 15 -2 10 12 -5 16 -4 16 5 4 9 -13 12 -12 17 8
4 12 10 22 15 22 11 0 7 -23 -5 -31 -4 -4 4 -6 19 -6 18 0 25 4 21 13 -3 7 -1
16 4 19 6 4 10 0 10 -7 1 -7 7 -2 15 12 8 14 15 21 15 15 0 -5 5 -3 10 7 6 10
18 14 30 11 11 -3 17 -10 13 -16 -3 -6 -1 -7 6 -3 14 9 5 26 -15 26 -8 0 -14
5 -14 10 0 6 5 9 11 8 6 -2 14 4 16 12 4 13 3 13 -6 0 -6 -8 -11 -11 -11 -6 0
5 -15 -7 -33 -26 -31 -33 -34 -34 -45 -18 -10 16 -8 18 8 15 11 -2 20 1 20 6
0 6 5 7 12 3 8 -5 9 -2 5 9 -3 9 -3 16 1 15 4 -1 18 4 32 11 17 10 25 11 28 2
2 -6 11 -11 20 -10 10 0 12 3 5 5 -6 3 -9 18 -7 37 4 26 3 29 -6 14 -6 -9 -8
-22 -5 -27 3 -6 -1 -7 -9 -4 -14 5 -13 10 4 34 14 19 17 31 9 35 -5 4 -8 13
-5 20 3 8 -5 26 -17 41 -12 16 -16 25 -9 20 7 -4 12 -2 12 5 0 8 4 8 15 -1 17
-14 31 -8 20 9 -3 6 -11 8 -17 5 -6 -4 -9 -1 -6 7 3 8 14 13 24 11 16 -2 16
-1 4 7 -11 7 -21 4 -39 -12 l-24 -22 12 22 c6 12 15 25 21 28 12 8 2 32 -16
39 -10 4 -13 2 -7 -7 12 -20 12 -35 -2 -40 -8 -4 -11 3 -10 17 4 30 -7 46 -33
51 -12 2 -26 6 -30 9 -11 7 -44 -63 -36 -76 4 -6 0 -6 -13 1 -11 6 -23 7 -27
4 -3 -4 -5 4 -4 18 3 22 35 52 48 44 3 -2 7 6 7 18 2 21 1 22 -13 3 -8 -11
-14 -16 -14 -12 0 4 -8 0 -17 -10 -16 -15 -17 -15 -24 2 -7 16 -8 17 -8 2 -1
-9 4 -20 9 -23 6 -3 10 -11 10 -17 0 -6 -8 -4 -18 5 -10 10 -23 17 -28 17 -4
0 1 -7 13 -15 21 -15 22 -45 1 -45 -5 0 -6 5 -2 11 7 11 -12 29 -31 29 -5 0
-4 -4 4 -9 18 -11 24 -44 8 -38 -7 3 -11 10 -10 16 2 6 -2 11 -7 11 -17 0 -11
-18 12 -34 16 -11 18 -16 7 -16 -8 0 -20 5 -27 12 -8 8 -15 8 -27 -2 -21 -17
-19 -4 5 30 19 27 19 28 0 45 -11 10 -17 22 -14 27 3 5 13 0 21 -11 8 -12 20
-21 26 -21 7 0 3 7 -7 15 -11 8 -16 15 -12 15 4 0 1 7 -8 15 -16 16 -12 45 6
45 6 0 8 -6 5 -14 -6 -16 19 -43 30 -32 3 3 1 6 -6 6 -7 0 -10 4 -7 9 10 15
-19 42 -37 35 -9 -3 -15 -10 -12 -15 3 -4 -3 -13 -14 -19 -12 -6 -22 -6 -26
-1 -3 6 3 15 14 21 12 6 18 18 16 30 -2 11 1 22 6 25 5 4 6 11 3 17 -5 7 -2 8
6 3 10 -6 12 -4 7 8 -3 9 0 23 8 30 11 11 11 17 2 26 -7 7 -7 12 -2 11 6 -2
13 -1 18 0 12 4 26 7 37 9 6 0 10 6 10 12 0 6 -5 7 -12 2 -26 -15 -38 -11 -38
13 0 17 -4 23 -12 18 -10 -6 -10 -4 0 7 6 7 12 20 12 29 -1 12 -3 12 -14 -3
-8 -10 -17 -14 -20 -9 -3 6 1 13 10 16 8 3 12 11 9 16 -4 6 -2 16 3 23 11 13
12 16 12 52 0 18 4 23 15 19 8 -4 15 -10 15 -16 0 -5 -6 -6 -12 -2 -7 4 -10 4
-6 -1 4 -4 3 -14 -3 -21 -7 -9 -4 -14 11 -19 12 -4 24 -4 27 -1 4 3 -1 6 -10
6 -20 0 -22 11 -4 29 10 10 8 15 -7 27 -13 9 -23 11 -30 4 -14 -14 -36 8 -29
28 6 14 4 15 -9 4 -13 -10 -18 -9 -29 5 -8 9 -9 14 -3 10 7 -4 18 1 25 10 12
14 11 15 -9 9 -16 -6 -22 -3 -22 8 0 9 4 16 8 16 4 0 8 9 9 20 1 11 -2 18 -7
15 -5 -3 -12 -1 -15 5 -4 6 -1 9 7 8 7 -2 12 5 12 14 -1 14 2 16 17 7 11 -5
19 -12 19 -15 0 -3 -4 -3 -9 0 -5 4 -8 -2 -7 -11 2 -10 -2 -21 -8 -25 -7 -5
-6 -8 3 -8 11 0 9 -4 -5 -16 -18 -15 -18 -15 3 -5 18 9 21 8 18 -7 -4 -25 5
-35 21 -21 17 14 19 -2 2 -19 -7 -7 -9 -12 -4 -12 4 0 14 6 21 14 10 10 11 16
2 25 -6 6 -7 11 -1 11 6 0 15 -5 20 -10 7 -7 11 -6 11 3 0 8 -6 14 -14 15 -7
1 -20 3 -28 4 -8 1 -15 5 -15 9 0 12 16 19 24 12 10 -11 37 -12 30 -2 -3 5 -9
7 -14 4 -5 -3 -11 -1 -15 5 -6 10 6 14 35 11 13 -2 13 0 1 8 -8 5 -20 7 -28 4
-9 -4 -11 0 -7 11 3 9 10 13 15 10 5 -3 9 -2 8 3 -3 19 2 27 10 15 7 -11 9
-11 14 2 3 8 1 18 -5 22 -7 4 -8 3 -4 -4 4 -7 -1 -10 -14 -7 -13 3 -18 0 -14
-7 4 -7 3 -8 -4 -4 -17 10 -15 29 3 22 8 -3 19 2 24 12 6 10 11 12 11 5 0 -20
45 -8 49 13 1 10 9 26 17 35 8 9 11 19 7 22 -7 8 25 47 38 47 5 0 6 -8 3 -17
-5 -15 -4 -15 4 -3 13 17 6 30 -14 30 -15 0 -18 11 -6 26 4 5 -6 -4 -23 -21
-16 -16 -29 -38 -29 -47 1 -10 -2 -16 -6 -13 -4 2 -7 -2 -7 -10 0 -11 4 -12
14 -3 7 6 16 8 19 5 3 -3 -3 -11 -14 -18 -11 -7 -17 -19 -15 -29 3 -10 -1 -17
-11 -17 -18 0 -22 22 -6 32 8 5 8 11 1 19 -6 7 -8 16 -4 20 10 10 12 36 3 36
-5 0 -10 -6 -13 -12 -3 -7 -4 -3 -4 8 1 15 6 20 16 16 10 -4 12 -1 6 9 -4 8
-5 11 0 7 4 -4 14 0 22 10 12 16 13 16 7 0 -3 -10 -1 -18 5 -18 6 0 11 6 11
13 0 6 11 22 23 34 18 17 23 31 21 60 -3 27 -1 34 6 23 8 -12 10 -12 11 5 1
11 2 27 3 35 1 8 -5 26 -13 40 -14 24 -14 24 5 10 12 -9 15 -9 7 -1 -6 7 -9
20 -6 27 3 8 0 14 -7 14 -6 0 -8 -5 -5 -10 7 -11 -23 -9 -42 3 -7 5 -13 5 -13
0 0 -4 -5 -1 -11 7 -9 12 -10 12 -5 -3 4 -12 2 -17 -6 -14 -7 2 -12 13 -10 23
2 16 1 17 -7 4 -6 -8 -11 -18 -11 -21 0 -13 33 -19 45 -9 9 7 15 7 19 1 8 -13
-4 -19 -37 -17 -18 1 -26 -2 -23 -11 3 -7 -4 -19 -14 -26 -11 -8 -17 -17 -12
-22 4 -5 2 -5 -5 -1 -6 3 -14 2 -18 -4 -4 -7 -12 -7 -23 -1 -11 6 -26 5 -44
-5 -23 -12 -27 -20 -24 -48 1 -19 -2 -34 -7 -33 -5 1 -12 -4 -15 -12 -3 -9 0
-11 9 -7 8 4 6 1 -4 -7 -9 -8 -28 -13 -42 -12 -14 2 -27 -1 -31 -6 -5 -9 8
-13 32 -10 7 1 15 -6 18 -15 5 -14 4 -15 -9 -4 -8 7 -15 9 -15 5 0 -4 -10 -1
-22 7 -13 8 -31 14 -40 12 -9 -1 -19 5 -22 13 -3 8 -1 11 4 8 5 -3 19 -8 29
-10 14 -3 18 1 14 11 -5 13 8 19 31 15 5 -1 6 5 3 14 -10 25 1 17 18 -12 13
-23 15 -24 10 -5 -4 15 -2 22 5 20 7 -2 15 4 17 12 4 12 3 12 -5 1 -6 -8 -12
-9 -16 -3 -3 6 3 14 15 17 12 4 18 10 13 14 -13 9 -17 34 -4 26 6 -4 7 1 3 10
-5 13 -7 14 -14 3 -8 -12 -13 -4 -10 15 1 5 -3 6 -9 2 -6 -4 -18 -1 -27 7 -15
12 -15 11 -3 -9 8 -12 17 -20 21 -17 4 2 12 -3 19 -11 10 -12 9 -16 -6 -22
-10 -4 -19 -2 -22 5 -4 14 -22 16 -22 3 0 -5 9 -13 20 -16 11 -4 18 -11 14
-16 -3 -6 -15 -4 -30 6 -29 19 -51 11 -33 -12 11 -12 10 -14 -7 -11 -10 1 -22
7 -25 12 -4 5 -17 -1 -30 -13 -31 -28 -38 -17 -9 14 19 20 21 28 11 38 -10 9
-11 8 -5 -7 6 -15 4 -17 -6 -11 -8 5 -11 4 -6 -3 3 -6 -8 -20 -25 -33 -31 -22
-31 -22 -25 -1 5 15 1 26 -13 38 -11 10 -18 21 -15 26 3 5 0 16 -7 24 -11 13
-10 15 2 14 26 -4 39 0 39 11 0 8 -5 8 -15 -1 -16 -13 -20 -3 -6 18 7 11 11
10 24 -2 15 -15 17 -15 27 5 9 16 9 24 -1 33 -9 8 -10 8 -5 -1 12 -21 -3 -34
-24 -23 -15 8 -21 6 -29 -7 -6 -10 -11 -13 -11 -7 0 7 9 22 20 35 11 13 18 17
15 8 -4 -10 0 -16 9 -16 8 0 14 5 13 11 -1 6 4 10 11 8 6 -1 12 2 12 8 0 6 6
10 14 10 8 0 16 7 20 15 3 8 11 15 18 15 9 0 9 -3 -2 -11 -13 -9 -12 -10 2 -5
10 3 20 1 23 -4 4 -6 0 -11 -7 -11 -7 -1 -17 -2 -23 -4 -5 -1 -16 -3 -23 -3
-9 -1 -12 -12 -9 -31 4 -20 0 -31 -10 -35 -8 -3 -11 -11 -7 -18 5 -8 2 -9 -10
-5 -11 5 -15 3 -10 -5 5 -8 2 -9 -9 -5 -24 9 -21 0 4 -14 17 -9 20 -8 14 2 -6
9 -3 11 8 6 11 -4 15 -1 12 13 -2 10 3 21 11 24 9 3 13 10 10 15 -3 5 1 12 10
15 13 5 14 9 4 21 -14 17 0 20 18 5 6 -6 10 -7 7 -4 -8 12 39 43 51 33 13 -10
12 26 -1 38 -4 5 -5 2 -1 -4 4 -7 4 -13 -1 -14 -4 0 -15 -2 -23 -4 -8 -1 -21
4 -28 11 -8 9 -9 14 -2 14 6 0 9 4 5 9 -3 5 1 15 8 23 7 7 15 18 17 23 8 21
25 31 46 27 12 -2 25 2 29 8 5 9 1 10 -14 5 -26 -8 -26 -1 -3 33 10 15 24 39
31 54 11 21 18 25 30 18 11 -5 23 -5 32 2 12 8 12 9 -1 5 -9 -3 -25 2 -35 10
-19 14 -19 14 5 8 19 -4 28 0 39 17 14 22 13 23 -6 5 -22 -19 -50 -15 -50 8 0
8 4 12 9 9 4 -3 8 9 8 25 0 17 5 31 11 31 5 0 8 -4 4 -9 -3 -5 -1 -12 5 -16 5
-3 10 -11 10 -16 0 -6 -5 -7 -12 -3 -7 4 -8 3 -4 -4 4 -7 2 -12 -3 -12 -6 0
-11 -5 -11 -12 0 -7 10 -3 22 9 18 18 19 24 8 37 -7 9 -9 16 -4 16 4 0 2 6 -5
13 -10 10 -15 8 -28 -8 -15 -19 -15 -19 -8 4 5 18 4 22 -5 16 -9 -5 -11 -4 -6
3 4 7 -4 23 -17 36 -21 20 -26 22 -42 10 -10 -8 -24 -14 -29 -14 -6 1 -1 6 11
13 16 9 20 16 13 27 -8 13 -10 12 -10 -2 0 -10 -4 -18 -10 -18 -5 0 -10 7 -10
15 0 8 -5 15 -11 15 -5 0 -7 -5 -4 -11z m-328 -164 c0 -17 -13 -20 -21 -6 -4
5 0 12 6 14 7 3 13 6 14 6 0 1 1 -6 1 -14z m73 -10 c0 -2 -10 -9 -22 -15 -22
-11 -22 -10 -4 4 21 17 26 19 26 11z m-514 -171 c-4 -10 -2 -13 7 -7 20 13 36
12 31 -2 -3 -7 -16 -12 -29 -12 -17 0 -23 5 -22 18 1 11 5 19 10 19 5 0 6 -7
3 -16z m-396 -14 c0 -5 -5 -10 -11 -10 -5 0 -7 5 -4 10 3 6 8 10 11 10 2 0 4
-4 4 -10z m35 -30 c3 -5 1 -10 -4 -10 -6 0 -11 5 -11 10 0 6 2 10 4 10 3 0 8
-4 11 -10z m170 -19 c-3 -6 -11 -11 -17 -11 -6 0 -6 6 2 15 14 17 26 13 15 -4z
m-55 -11 c-13 -8 -13 -10 -1 -10 8 0 11 -3 8 -7 -4 -3 1 -15 10 -25 13 -14 14
-21 5 -30 -18 -18 -15 -33 3 -18 9 7 18 10 22 6 3 -3 1 -6 -6 -6 -7 0 -9 -5
-6 -10 4 -6 1 -9 -7 -8 -7 2 -12 -5 -12 -15 2 -14 -1 -15 -12 -6 -11 9 -14 8
-14 -4 0 -8 3 -17 8 -20 4 -2 1 -2 -5 -1 -16 4 -17 -8 -3 -24 7 -9 7 -9 -2 -2
-7 6 -19 10 -28 10 -12 -1 -11 -4 5 -17 16 -13 17 -15 3 -10 -10 4 -18 2 -18
-3 0 -6 -4 -10 -9 -10 -6 0 -8 9 -6 21 3 13 0 19 -8 16 -7 -3 -11 -8 -10 -13
1 -5 -10 -10 -24 -11 -16 0 -21 2 -13 7 10 6 9 9 -1 14 -8 3 -4 3 8 0 18 -4
22 -2 17 10 -3 9 -11 13 -17 9 -6 -3 -7 -1 -3 6 4 6 12 9 17 6 5 -4 9 -1 9 4
0 6 5 11 11 11 8 0 7 -5 -1 -15 -7 -9 -10 -18 -7 -21 3 -3 12 3 19 15 7 12 19
21 26 21 7 0 11 4 8 9 -3 4 -17 7 -31 6 -14 -2 -23 1 -20 5 3 5 13 6 23 3 15
-6 15 -5 2 11 -13 16 -11 21 20 47 19 16 32 29 28 30 -5 1 -13 2 -20 3 -6 0
-13 7 -16 15 -3 9 1 11 16 7 11 -4 23 -2 27 4 4 6 10 9 13 5 4 -3 0 -10 -8
-15z m-450 -41 c0 8 3 11 7 8 3 -4 -1 -15 -10 -25 -10 -10 -14 -23 -10 -28 4
-5 -1 -1 -11 8 -16 14 -17 19 -6 33 11 13 15 13 21 3 7 -10 9 -10 9 1z m1313
-21 c-4 -7 -8 -23 -8 -36 0 -13 -7 -27 -14 -31 -10 -6 -9 -10 4 -15 9 -3 15
-12 12 -20 -3 -8 3 -22 14 -32 23 -21 24 -34 3 -34 -8 0 -13 4 -9 9 3 5 0 13
-6 17 -8 4 -9 3 -5 -4 5 -8 1 -10 -10 -5 -11 4 -13 8 -6 11 7 2 12 8 12 13 0
6 -4 8 -9 5 -5 -3 -12 4 -16 17 -4 13 -8 17 -12 9 -2 -6 -8 -10 -12 -8 -4 3
-8 -1 -8 -9 0 -11 4 -12 14 -4 19 16 16 -1 -4 -23 -9 -11 -11 -18 -5 -18 7 0
12 5 12 11 0 5 5 7 11 4 6 -4 8 -14 5 -22 -3 -8 -1 -11 4 -8 6 4 10 3 9 -2 -3
-19 2 -23 21 -13 16 9 22 8 26 -5 6 -14 8 -14 19 1 8 12 14 14 19 6 5 -9 13
-8 29 3 13 8 33 13 46 10 32 -6 45 3 30 21 -9 10 -9 14 0 14 21 0 23 -28 3
-48 -18 -18 -22 -19 -41 -6 -18 13 -20 13 -16 -6 2 -11 -1 -23 -7 -26 -7 -4
-8 -2 -4 4 4 7 3 12 -3 12 -5 0 -13 -5 -16 -10 -5 -8 -11 -7 -20 0 -8 7 -19 9
-24 6 -5 -4 -14 2 -20 11 -10 17 -10 17 -11 1 0 -12 -5 -15 -17 -11 -10 4 -14
2 -9 -5 3 -6 2 -13 -4 -17 -6 -4 -8 -12 -4 -18 3 -7 -2 -3 -10 7 -9 11 -16 14
-16 7 0 -17 -43 14 -46 34 -1 8 1 13 5 10 5 -2 17 2 27 11 19 14 19 15 -1 12
-11 -2 -30 7 -43 20 -12 12 -19 22 -16 22 3 0 2 5 -2 11 -4 8 -9 7 -15 -2 -6
-10 -9 -10 -9 -2 0 6 5 15 10 18 6 3 10 10 10 16 0 5 -9 4 -19 -3 -11 -7 -17
-16 -14 -22 4 -5 1 -6 -8 -1 -7 5 -23 10 -34 11 -19 2 -21 -3 -20 -37 1 -21 0
-37 -3 -35 -2 3 -14 -7 -26 -21 -18 -21 -24 -23 -31 -12 -5 8 -5 11 0 7 9 -9
35 9 35 24 0 6 -7 5 -15 -2 -12 -10 -18 -10 -31 1 -15 12 -16 11 -10 -11 6
-19 5 -21 -3 -10 -12 17 -31 20 -47 8 -6 -5 -18 0 -29 12 -19 21 -13 28 29 34
19 3 34 16 18 16 -7 0 -12 5 -12 11 0 8 6 7 16 -2 14 -11 19 -10 35 10 23 28
24 42 4 35 -8 -3 -13 -11 -12 -17 1 -7 -8 -12 -20 -12 -12 0 -28 -9 -36 -19
-11 -15 -17 -17 -33 -8 -12 7 -14 12 -5 12 11 0 11 3 1 15 -9 11 -9 15 -1 15
7 0 10 4 7 9 -7 10 20 9 30 -2 16 -16 33 -5 52 36 12 23 21 36 22 29 0 -7 5
-10 10 -7 6 4 10 3 9 -2 -3 -20 2 -27 11 -13 6 9 10 10 10 3 0 -6 -4 -15 -10
-18 -13 -8 -13 -35 1 -35 5 0 7 5 4 10 -3 6 0 13 9 16 8 3 12 12 10 19 -3 7
-1 16 5 20 7 3 8 0 5 -9 -3 -9 -1 -16 5 -16 6 0 11 6 11 13 0 9 3 8 9 -2 6 -9
11 -10 15 -2 5 7 12 7 25 -1 11 -6 26 -8 37 -3 29 12 45 14 38 4 -3 -5 0 -9 5
-9 6 0 11 7 11 15 0 8 4 15 10 15 5 0 6 -8 3 -17 -6 -16 -5 -16 10 -5 9 8 15
19 14 25 -1 6 3 11 10 12 6 0 15 3 19 8 12 11 16 8 7 -5z m112 -8 c3 -5 1 -10
-4 -10 -6 0 -11 5 -11 10 0 6 2 10 4 10 3 0 8 -4 11 -10z m-239 -19 c-13 -12
-18 -13 -28 -2 -11 10 -9 11 6 5 12 -5 17 -4 13 3 -3 5 1 10 9 10 13 0 13 -2
0 -16z m-196 -11 c0 -6 -7 -13 -15 -16 -8 -4 -12 -11 -8 -17 3 -6 1 -7 -5 -3
-9 5 -9 13 -2 27 11 20 30 26 30 9z m-45 -10 c-3 -5 -12 -10 -18 -10 -7 0 -6
4 3 10 19 12 23 12 15 0z m360 -119 c3 -5 2 -12 -3 -15 -5 -3 -9 1 -9 9 0 17
3 19 12 6z m-45 -86 c5 3 10 1 10 -4 0 -17 -37 -13 -44 5 -5 14 -4 15 8 5 8
-7 20 -10 26 -6z m521 -28 c-15 -15 -21 -17 -19 -7 3 16 30 41 37 34 3 -3 -5
-15 -18 -27z m-517 -5 c3 -5 -1 -9 -9 -9 -8 0 -12 4 -9 9 3 4 7 8 9 8 2 0 6
-4 9 -8z m394 -123 c10 -14 10 -20 -3 -33 -10 -9 -12 -16 -5 -16 7 0 6 -6 -4
-15 -8 -8 -17 -15 -19 -15 -7 0 -2 28 6 36 4 4 0 16 -10 26 -15 17 -15 18 0
18 10 0 17 5 17 12 0 6 1 9 3 7 1 -2 8 -11 15 -20z m-1838 -23 c0 -3 -4 -8
-10 -11 -5 -3 -10 -1 -10 4 0 6 5 11 10 11 6 0 10 -2 10 -4z m-229 -73 c12
-14 12 -16 0 -8 -11 6 -13 4 -9 -7 4 -8 1 -15 -7 -15 -7 0 -12 11 -12 24 0 27
9 29 28 6z m2069 -8 c0 -2 -6 -8 -13 -14 -10 -8 -14 -7 -14 2 0 8 6 14 14 14
7 0 13 -1 13 -2z m-2076 -61 c-2 -19 4 -27 21 -34 28 -11 39 -26 25 -35 -5 -3
-10 -11 -10 -17 0 -7 4 -7 13 1 8 6 17 7 22 3 4 -4 4 4 0 18 l-7 25 18 -24
c16 -23 18 -23 31 -6 14 20 18 9 5 -13 -5 -8 -16 -10 -28 -5 -16 6 -17 4 -7
-9 11 -12 9 -17 -13 -26 -16 -8 -22 -17 -18 -25 4 -6 -5 -1 -19 12 -19 17 -24
28 -17 36 7 9 6 16 -4 24 -8 7 -12 19 -9 27 3 8 0 14 -7 14 -6 0 -10 6 -7 13
2 6 0 20 -5 30 -6 12 -5 17 5 17 9 0 13 -9 11 -26z m2037 -417 c-8 -11 -6 -18
9 -32 19 -17 19 -35 -1 -35 -6 0 -8 4 -5 8 2 4 1 14 -3 21 -6 9 -11 10 -15 2
-4 -6 -2 -11 4 -11 6 0 8 -5 5 -10 -8 -14 -28 -1 -22 14 3 6 -1 20 -9 31 -8
10 -14 14 -14 8 0 -7 4 -14 9 -17 4 -3 7 -17 6 -31 -2 -14 1 -23 6 -20 5 4 6
-2 2 -11 -5 -13 -8 -14 -11 -5 -4 11 -6 11 -13 0 -7 -11 -9 -11 -9 3 0 9 5 18
12 20 8 3 5 11 -8 24 -18 18 -18 22 -5 34 8 8 23 15 33 15 10 1 21 5 25 8 12
12 16 -2 4 -16z m-66 -47 c3 -5 1 -10 -4 -10 -6 0 -11 5 -11 10 0 6 2 10 4 10
3 0 8 -4 11 -10z m61 -45 c-13 -10 -14 -14 -3 -23 10 -9 17 -8 26 1 10 9 15 9
24 -3 21 -27 40 -23 36 7 -1 7 30 26 48 29 7 1 17 -4 23 -12 10 -10 8 -12 -9
-9 -12 2 -21 0 -21 -6 0 -5 -5 -8 -11 -7 -6 2 -14 -4 -16 -12 -3 -9 -1 -11 4
-5 4 6 18 11 31 11 18 1 20 -1 11 -12 -6 -8 -8 -14 -5 -14 9 0 -16 -25 -29
-30 -5 -2 -16 -10 -24 -17 -11 -12 -17 -11 -37 2 -26 17 -32 8 -11 -15 10 -12
9 -12 -4 -2 -9 6 -19 9 -23 5 -4 -4 -4 1 0 11 5 14 4 17 -5 12 -13 -9 -48 31
-43 48 2 5 -3 13 -10 19 -10 7 -9 8 3 4 11 -4 20 3 28 19 6 15 16 22 23 18 8
-5 6 -11 -6 -19z m-1937 -73 c9 -16 6 -18 -25 -17 -29 1 -33 -1 -19 -11 13
-10 13 -12 1 -17 -8 -3 -19 0 -25 7 -11 14 8 37 39 49 8 3 16 6 17 6 1 1 7 -7
12 -17z m2122 -216 c-6 -7 -7 -17 -3 -21 4 -5 2 -5 -5 -2 -6 4 -9 16 -6 27 3
11 9 17 15 14 5 -3 5 -11 -1 -18z m-2126 -137 c5 -15 10 -18 18 -10 16 16 31
13 17 -3 -9 -12 -8 -15 9 -13 15 1 20 6 16 17 -3 9 1 7 11 -5 8 -11 20 -19 25
-17 6 1 5 -6 -1 -18 -11 -21 -2 -27 18 -10 9 7 9 7 2 -2 -5 -6 -6 -18 -1 -27
12 -26 8 -41 -19 -62 -14 -10 -17 -17 -8 -13 11 4 21 -2 28 -16 7 -13 8 -20 2
-16 -5 3 -13 -1 -16 -10 -3 -8 -10 -12 -16 -9 -6 3 -13 0 -16 -9 -6 -16 -46
-18 -41 -1 2 5 13 9 23 7 16 -2 17 -1 4 8 -13 9 -13 12 3 21 13 7 15 15 8 27
-6 10 -6 23 0 34 7 14 6 20 -6 24 -8 3 -13 10 -10 14 3 5 0 12 -7 17 -7 4 -13
15 -13 23 0 8 -7 15 -15 15 -17 0 -50 36 -43 47 8 14 22 8 28 -13z m1858 -112
c7 3 10 4 7 0 -3 -3 -8 -5 -12 -4 -4 1 -14 -7 -23 -18 -14 -19 -15 -18 -3 9 7
15 14 23 16 17 2 -6 9 -8 15 -4z m-733 -361 c0 -3 -4 -8 -10 -11 -5 -3 -10 -1
-10 4 0 6 5 11 10 11 6 0 10 -2 10 -4z m76 -68 c11 6 21 0 21 -13 0 -11 -8 -9
-32 10 -18 13 -36 21 -40 17 -5 -4 -5 -1 -1 6 6 11 12 10 28 -5 11 -10 22 -17
24 -15z m-330 -63 c-1 -27 -10 -32 -22 -13 -4 6 -2 14 4 16 7 2 10 8 6 13 -3
5 -1 9 4 9 6 0 9 -11 8 -25z m514 -5 c0 -5 -2 -10 -4 -10 -3 0 -8 5 -11 10 -3
6 -1 10 4 10 6 0 11 -4 11 -10z m25 0 c-7 -11 30 -8 41 3 12 11 21 8 28 -9 5
-13 3 -14 -6 -6 -9 7 -18 6 -32 -4 -14 -10 -23 -11 -33 -3 -11 10 -10 29 3 29
3 0 2 -5 -1 -10z"/>
<path d="M1219 2332 c-8 -10 -18 -20 -24 -20 -18 -1 -16 -18 4 -36 14 -13 24
-15 37 -8 11 6 13 11 5 16 -6 4 -11 2 -11 -5 0 -7 -3 -9 -7 -5 -4 4 3 16 17
26 23 18 24 20 9 35 -15 16 -18 15 -30 -3z m31 -11 c0 -4 -11 -13 -25 -19 -32
-15 -35 -15 -35 -2 0 6 3 9 8 9 16 -3 32 1 31 9 -3 16 2 23 11 17 6 -3 10 -10
10 -14z"/>
<path d="M1194 2236 c-10 -8 -16 -17 -13 -20 3 -3 14 1 25 8 10 8 16 17 13 20
-3 3 -14 -1 -25 -8z"/>
<path d="M2073 2303 c4 -6 -2 -18 -13 -28 -11 -10 -20 -14 -20 -10 0 5 -5 4
-12 -3 -14 -14 -32 -16 -23 -3 3 5 1 12 -5 16 -6 3 -13 -1 -16 -9 -3 -9 -10
-13 -15 -10 -6 3 -17 0 -25 -7 -9 -7 -25 -14 -36 -16 -15 -2 -18 1 -13 17 6
18 4 19 -19 9 -14 -7 -24 -17 -23 -23 1 -6 -6 -10 -15 -10 -14 1 -15 -2 -8
-16 5 -9 6 -21 2 -25 -4 -5 1 -5 11 -2 11 4 16 3 12 -3 -3 -6 -13 -10 -21 -10
-8 0 -12 -4 -9 -10 3 -5 2 -10 -3 -10 -6 0 -9 11 -8 24 0 13 5 22 10 18 5 -3
6 0 2 6 -5 9 -17 5 -39 -12 -32 -25 -35 -26 -62 -26 -13 0 -14 -2 -3 -14 9
-10 17 -11 26 -4 6 6 12 7 12 4 0 -4 8 -2 18 3 13 7 22 7 30 -1 8 -8 15 -8 25
0 8 7 17 9 20 5 4 -3 8 -2 8 3 6 39 5 53 -2 48 -5 -3 -9 0 -9 5 0 12 1 13 51
15 20 1 44 7 52 14 9 8 18 9 21 3 7 -10 25 -9 44 2 7 5 12 4 12 -2 0 -6 -5
-11 -12 -11 -6 0 -9 -3 -5 -6 3 -3 14 -1 24 4 13 8 22 7 35 -5 10 -9 18 -11
18 -6 0 6 -8 14 -17 18 -17 6 -17 7 1 21 12 8 15 14 7 14 -10 0 -11 3 -2 14 9
11 9 16 0 22 -7 4 -9 3 -6 -3z m-3 -37 c0 -2 -6 -9 -14 -15 -11 -9 -16 -9 -22
0 -4 7 -3 9 4 5 6 -3 13 -2 17 4 6 10 15 14 15 6z"/>
<path d="M1802 2280 c3 -8 -2 -21 -11 -28 -13 -11 -12 -11 9 -1 14 6 26 13 28
14 1 1 -5 8 -14 16 -15 12 -17 12 -12 -1z"/>
<path d="M1911 2261 c-9 -16 -8 -19 6 -17 20 3 28 21 14 30 -5 4 -15 -2 -20
-13z"/>
<path d="M1719 2240 c-6 -20 -5 -50 1 -50 14 0 21 33 10 44 -5 5 -11 8 -11 6z"/>
<path d="M1983 2222 c-7 -5 -2 -20 13 -42 13 -19 25 -30 25 -25 6 43 4 53 -11
63 -9 5 -22 7 -27 4z"/>
<path d="M2046 2131 c-4 -6 -4 -17 0 -23 6 -10 4 -10 -8 0 -11 9 -18 10 -23 2
-3 -5 -3 -11 2 -11 53 -8 61 -7 59 7 -3 22 -22 38 -30 25z"/>
<path d="M2150 2128 c0 -3 6 -11 14 -17 10 -9 17 -7 27 6 12 16 12 17 -2 6
-12 -10 -18 -10 -27 -1 -7 7 -12 9 -12 6z"/>
<path d="M2426 1901 c-4 -5 -2 -12 3 -15 5 -4 12 -2 15 3 4 5 2 12 -3 15 -5 4
-12 2 -15 -3z"/>
<path d="M385 1691 c-7 -12 12 -24 25 -16 11 7 4 25 -10 25 -5 0 -11 -4 -15
-9z"/>
<path d="M425 1651 c-3 -6 -10 -9 -15 -6 -14 9 -21 -12 -7 -23 17 -14 56 13
40 29 -8 8 -13 8 -18 0z m15 -5 c0 -2 -6 -9 -14 -15 -11 -9 -16 -9 -22 0 -4 7
-3 9 4 5 6 -3 13 -2 17 4 6 10 15 14 15 6z"/>
<path d="M2385 1321 c-3 -5 -2 -12 3 -15 5 -3 9 1 9 9 0 17 -3 19 -12 6z"/>
<path d="M2377 1196 c-7 -18 23 -44 45 -41 10 2 20 -1 23 -5 3 -5 13 -6 22 -3
12 5 14 3 8 -8 -8 -12 -6 -12 9 0 9 8 14 21 11 30 -4 13 -2 13 8 -1 13 -16 15
-16 26 9 10 22 10 24 -1 16 -18 -15 -67 -10 -78 7 -7 12 -12 12 -21 3 -8 -8
-18 -9 -30 -3 -12 7 -19 6 -22 -4z m98 -19 c5 5 3 0 -4 -9 -7 -10 -18 -15 -25
-11 -6 4 -20 8 -30 8 -11 0 -21 6 -24 14 -3 10 0 12 11 8 9 -3 19 -2 23 4 4 7
12 5 23 -5 10 -9 22 -13 26 -9z"/>
<path d="M2424 1178 c-4 -7 -4 -10 1 -6 4 4 15 2 24 -5 14 -11 14 -10 2 6 -16
20 -18 21 -27 5z"/>
<path d="M520 770 c-8 -5 -11 -12 -7 -17 5 -4 12 -1 17 7 6 8 10 10 10 5 0 -6
-5 -16 -11 -22 -8 -8 -6 -16 9 -29 11 -9 18 -24 15 -32 -4 -9 -1 -13 7 -10 20
6 20 38 0 55 -10 9 -16 22 -13 28 6 17 -10 26 -27 15z m35 -50 c10 -11 16 -20
13 -20 -3 0 -13 9 -23 20 -10 11 -16 20 -13 20 3 0 13 -9 23 -20z"/>
<path d="M542 628 c-16 -16 -15 -25 2 -25 8 0 12 6 8 15 -3 10 -1 13 6 8 7 -4
12 -2 12 3 0 14 -13 14 -28 -1z"/>
<path d="M2344 2791 c1 -17 26 -28 26 -11 0 6 -4 9 -9 5 -5 -3 -11 0 -14 7 -2
9 -4 8 -3 -1z"/>
<path d="M2177 2784 c-3 -4 -2 -15 4 -26 11 -21 -5 -53 -22 -42 -5 3 -9 1 -9
-4 0 -5 -7 -9 -15 -9 -9 0 -14 6 -11 14 3 7 2 13 -3 13 -13 0 -20 -36 -10 -51
7 -12 9 -11 9 1 0 13 1 13 10 0 6 -9 10 -10 10 -3 0 7 9 17 20 23 15 8 20 8
18 -2 -2 -6 5 -12 15 -13 9 0 17 4 16 8 0 5 11 17 26 28 14 12 23 25 19 30 -3
5 -9 7 -14 4 -4 -3 -10 -2 -13 2 -2 5 -2 3 -1 -4 2 -6 -4 -14 -12 -17 -17 -6
-17 -5 -4 29 7 17 7 24 0 20 -6 -3 -10 -14 -10 -23 0 -14 -2 -15 -9 -2 -6 8
-7 18 -5 22 6 10 0 11 -9 2z m53 -56 c-14 -11 -24 -24 -23 -28 1 -4 -4 -7 -11
-7 -20 0 -12 30 9 33 10 1 22 7 28 13 6 6 13 11 17 11 3 -1 -6 -10 -20 -22z"/>
<path d="M2235 2780 c3 -5 8 -10 11 -10 2 0 4 5 4 10 0 6 -5 10 -11 10 -5 0
-7 -4 -4 -10z"/>
<path d="M2377 2764 c-8 -8 3 -34 15 -34 6 0 4 8 -3 17 -12 15 -12 16 4 10 9
-3 17 -2 17 3 0 11 -23 14 -33 4z"/>
<path d="M2135 2740 c3 -5 8 -10 11 -10 2 0 4 5 4 10 0 6 -5 10 -11 10 -5 0
-7 -4 -4 -10z"/>
<path d="M2415 2740 c-4 -6 -1 -9 7 -8 8 2 12 -5 11 -19 -2 -13 1 -23 5 -23 4
0 8 9 9 19 2 24 -22 47 -32 31z"/>
<path d="M1966 2722 c-3 -5 1 -9 9 -9 8 0 12 4 9 9 -3 4 -7 8 -9 8 -2 0 -6 -4
-9 -8z"/>
<path d="M2026 2717 c3 -10 9 -15 12 -12 3 3 0 11 -7 18 -10 9 -11 8 -5 -6z"/>
<path d="M2067 2714 c6 -15 23 -19 23 -5 0 5 -7 11 -14 14 -10 4 -13 1 -9 -9z"/>
<path d="M1916 2702 c-3 -5 1 -9 9 -9 8 0 12 4 9 9 -3 4 -7 8 -9 8 -2 0 -6 -4
-9 -8z"/>
<path d="M2045 2691 c-3 -12 -11 -21 -16 -21 -6 0 -7 5 -4 10 3 6 2 10 -2 10
-5 0 -13 -8 -19 -18 -10 -15 -8 -18 7 -19 19 -2 57 42 46 53 -3 3 -8 -4 -12
-15z"/>
<path d="M1958 2693 c7 -3 16 -2 19 1 4 3 -2 6 -13 5 -11 0 -14 -3 -6 -6z"/>
<path d="M1886 2677 c3 -10 9 -15 12 -12 3 3 0 11 -7 18 -10 9 -11 8 -5 -6z"/>
<path d="M2065 2680 c-3 -6 1 -7 9 -4 18 7 21 14 7 14 -6 0 -13 -4 -16 -10z"/>
<path d="M2150 2680 c0 -5 5 -10 10 -10 6 0 10 5 10 10 0 6 -4 10 -10 10 -5 0
-10 -4 -10 -10z"/>
<path d="M1720 2660 c-9 -6 -10 -10 -3 -10 6 0 15 5 18 10 8 12 4 12 -15 0z"/>
<path d="M1843 2635 c0 -8 4 -12 9 -9 4 3 8 9 8 15 0 5 -4 9 -8 9 -5 0 -9 -7
-9 -15z"/>
<path d="M2453 2629 c-2 -23 3 -25 10 -4 4 8 3 16 -1 19 -4 3 -9 -4 -9 -15z"/>
<path d="M1656 2627 c3 -10 9 -15 12 -12 3 3 0 11 -7 18 -10 9 -11 8 -5 -6z"/>
<path d="M1695 2610 c-4 -6 -1 -17 5 -25 14 -17 0 -20 -18 -5 -9 7 -9 7 -3 -1
6 -8 4 -21 -7 -36 -15 -24 -16 -24 -29 -7 -7 10 -13 13 -13 8 0 -6 5 -15 10
-20 8 -8 6 -15 -5 -24 -15 -12 -16 -11 -13 5 2 14 -3 20 -20 21 -12 1 -25 -3
-29 -9 -3 -6 -1 -7 5 -3 5 3 13 0 15 -6 4 -10 6 -10 6 0 1 6 6 12 11 12 6 0 4
-13 -5 -30 -16 -31 -29 -41 -19 -16 3 9 -4 19 -16 26 -15 8 -20 8 -16 1 4 -6
3 -11 -2 -11 -6 0 -9 -11 -8 -24 0 -13 5 -21 11 -18 5 3 26 6 47 7 36 1 82 30
73 45 -3 4 2 11 10 14 8 3 14 9 14 13 -4 17 14 43 25 36 6 -3 3 3 -7 15 -11
11 -16 26 -12 31 3 6 4 11 1 11 -3 0 -8 -5 -11 -10z m-18 -91 c-9 -6 -15 -14
-12 -18 6 -11 -17 -31 -43 -36 -16 -3 -19 0 -15 13 4 10 8 12 11 4 2 -7 14 1
29 18 13 17 30 30 36 30 7 0 4 -5 -6 -11z m-97 -39 c0 -5 -7 -10 -16 -10 -8 0
-12 5 -9 10 3 6 10 10 16 10 5 0 9 -4 9 -10z"/>
<path d="M1867 2609 c7 -7 15 -10 18 -7 3 3 -2 9 -12 12 -14 6 -15 5 -6 -5z"/>
<path d="M1639 2573 c-13 -16 -12 -17 4 -4 9 7 17 15 17 17 0 8 -8 3 -21 -13z"/>
<path d="M2369 2574 c-1 -2 -2 -7 -3 -11 0 -5 -12 -24 -26 -43 -13 -19 -17
-29 -8 -22 20 16 32 1 23 -31 -6 -20 -5 -21 6 -3 9 15 9 24 0 37 -15 24 -14
36 1 21 7 -7 16 -12 22 -12 5 0 1 6 -9 14 -18 13 -17 14 9 28 27 14 28 15 7
21 -11 3 -22 3 -22 1z"/>
<path d="M1655 2559 c-4 -6 -5 -12 -2 -15 2 -3 7 2 10 11 7 17 1 20 -8 4z"/>
<path d="M945 2540 c-3 -6 1 -7 9 -4 18 7 21 14 7 14 -6 0 -13 -4 -16 -10z"/>
<path d="M986 2537 c3 -10 9 -15 12 -12 3 3 0 11 -7 18 -10 9 -11 8 -5 -6z"/>
<path d="M1516 2542 c-3 -4 4 -9 15 -9 23 -2 25 3 4 10 -8 4 -16 3 -19 -1z"/>
<path d="M1035 2531 c6 -11 4 -13 -8 -8 -23 9 -21 0 2 -13 15 -7 19 -7 17 5
-1 8 -6 18 -11 22 -4 5 -5 2 0 -6z"/>
<path d="M2381 2537 c2 -1 11 -8 21 -15 12 -10 18 -10 24 -1 4 7 3 9 -4 5 -6
-3 -13 -2 -17 4 -3 5 -11 10 -17 10 -6 0 -9 -1 -7 -3z"/>
<path d="M1390 2521 c0 -6 4 -13 10 -16 6 -3 7 1 4 9 -7 18 -14 21 -14 7z"/>
<path d="M910 2489 c-15 -17 -33 -28 -39 -25 -6 4 -8 -2 -6 -15 3 -15 0 -19
-10 -15 -9 3 -12 0 -8 -10 3 -8 -1 -14 -8 -14 -11 0 -11 -3 1 -11 12 -9 11
-10 -7 -6 -15 3 -20 1 -16 -9 4 -10 0 -12 -13 -7 -16 6 -16 5 2 -14 22 -23 44
-19 44 8 0 10 -1 21 -2 23 -2 2 5 13 15 23 9 11 14 23 10 26 -6 6 12 10 20 5
8 -6 36 25 31 34 -3 5 2 16 12 23 11 8 15 15 11 15 -4 0 -21 -14 -37 -31z
m-70 -119 c0 -5 -5 -10 -11 -10 -5 0 -7 5 -4 10 3 6 8 10 11 10 2 0 4 -4 4
-10z"/>
<path d="M1493 2505 c0 -8 4 -12 9 -9 5 3 6 10 3 15 -9 13 -12 11 -12 -6z"/>
<path d="M1021 2479 c28 -28 33 -29 41 -14 6 9 7 19 4 22 -3 4 -6 1 -6 -5 0
-7 -8 -12 -17 -11 -12 0 -14 2 -5 6 9 3 4 10 -13 19 -39 20 -40 18 -4 -17z"/>
<path d="M1311 2487 c-13 -21 -12 -21 5 -5 10 10 16 20 13 22 -3 3 -11 -5 -18
-17z"/>
<path d="M880 2490 c-9 -6 -10 -10 -3 -10 6 0 15 5 18 10 8 12 4 12 -15 0z"/>
<path d="M1374 2492 c3 -5 -4 -21 -15 -38 -10 -16 -19 -23 -19 -16 0 6 -5 12
-11 12 -5 0 -7 -5 -3 -11 4 -7 1 -10 -7 -7 -8 3 -13 11 -11 17 1 7 -2 10 -8 6
-14 -8 10 -43 28 -41 8 2 22 13 32 26 12 15 22 20 31 15 12 -7 12 -6 1 7 -10
13 -10 17 0 20 8 3 6 7 -6 11 -9 4 -15 3 -12 -1z"/>
<path d="M1345 2479 c-4 -6 -5 -12 -2 -15 2 -3 7 2 10 11 7 17 1 20 -8 4z"/>
<path d="M1117 2473 c-10 -9 -9 -23 1 -23 5 0 9 7 9 15 0 17 -1 18 -10 8z"/>
<path d="M1215 2471 c-3 -5 -2 -12 3 -15 5 -3 9 1 9 9 0 17 -3 19 -12 6z"/>
<path d="M815 2450 c-3 -5 -4 -14 0 -19 3 -5 -2 -12 -10 -14 -12 -4 -12 -5 1
-3 10 0 18 10 19 24 2 24 -1 27 -10 12z"/>
<path d="M2277 2448 c-7 -4 -8 -8 -3 -8 5 0 2 -7 -5 -16 -18 -22 -20 -41 -3
-41 8 0 12 3 9 5 -7 7 38 38 49 34 5 -2 4 4 -4 12 -15 19 0 21 20 4 12 -11 12
-10 1 4 -13 17 -42 20 -64 6z m12 -29 c-30 -26 -34 -24 -12 5 10 13 22 22 26
19 4 -3 -2 -13 -14 -24z"/>
<path d="M1164 2435 c-4 -8 -11 -12 -17 -8 -6 3 -7 1 -3 -5 9 -15 9 -15 29 8
9 11 12 20 7 20 -6 0 -13 -7 -16 -15z"/>
<path d="M2310 2399 c0 -5 5 -7 10 -4 6 3 10 8 10 11 0 2 -4 4 -10 4 -5 0 -10
-5 -10 -11z"/>
<path d="M1086 2391 c-4 -5 -2 -12 3 -15 5 -4 12 -2 15 3 4 5 2 12 -3 15 -5 4
-12 2 -15 -3z"/>
<path d="M2516 2382 c-3 -5 1 -9 9 -9 8 0 12 4 9 9 -3 4 -7 8 -9 8 -2 0 -6 -4
-9 -8z"/>
<path d="M2587 2379 c7 -7 15 -10 18 -7 3 3 -2 9 -12 12 -14 6 -15 5 -6 -5z"/>
<path d="M2575 2351 c-3 -5 0 -13 6 -17 8 -5 9 -3 4 6 -6 10 -4 12 9 7 10 -4
15 -3 11 3 -8 13 -22 13 -30 1z"/>
<path d="M2652 2345 c4 -4 3 -14 -4 -22 -6 -7 -9 -15 -7 -18 3 -2 10 4 17 15
9 15 9 21 -1 26 -6 4 -9 4 -5 -1z"/>
<path d="M673 2325 c0 -8 4 -12 9 -9 5 3 6 10 3 15 -9 13 -12 11 -12 -6z"/>
<path d="M2269 2323 c-13 -16 -12 -17 4 -4 9 7 17 15 17 17 0 8 -8 3 -21 -13z"/>
<path d="M2422 2297 c13 -10 15 -16 6 -25 -9 -9 -9 -15 0 -24 7 -7 12 -8 12
-2 0 5 4 4 8 -3 5 -8 16 -4 35 13 16 13 24 24 18 24 -6 0 -8 7 -5 15 4 8 1 15
-6 15 -6 0 -8 -4 -5 -10 3 -5 1 -10 -4 -10 -6 0 -11 5 -11 10 0 6 -5 10 -11
10 -8 0 -8 -4 -2 -12 17 -21 11 -47 -9 -45 -18 1 -26 17 -8 17 18 0 10 19 -12
30 -21 10 -21 10 -6 -3z"/>
<path d="M2277 2290 c7 -8 20 -15 29 -16 9 -1 13 1 9 4 -4 4 -10 7 -13 7 -4 0
-14 4 -22 9 -12 7 -13 6 -3 -4z"/>
<path d="M2333 2285 c0 -8 4 -12 9 -9 5 3 6 10 3 15 -9 13 -12 11 -12 -6z"/>
<path d="M650 2286 c0 -2 7 -7 16 -10 8 -3 12 -2 9 4 -6 10 -25 14 -25 6z"/>
<path d="M2226 2282 c-3 -5 1 -9 9 -9 8 0 12 4 9 9 -3 4 -7 8 -9 8 -2 0 -6 -4
-9 -8z"/>
<path d="M2390 2280 c-13 -8 -12 -10 3 -10 9 0 17 5 17 10 0 12 -1 12 -20 0z"/>
<path d="M2655 2280 c3 -5 2 -10 -3 -10 -5 0 -9 -7 -9 -16 0 -14 2 -14 14 2
16 22 17 34 2 34 -5 0 -7 -4 -4 -10z"/>
<path d="M2350 2260 c0 -5 5 -10 10 -10 6 0 10 5 10 10 0 6 -4 10 -10 10 -5 0
-10 -4 -10 -10z"/>
<path d="M2246 2245 c-11 -8 -15 -15 -9 -15 6 0 16 7 23 15 16 19 11 19 -14 0z"/>
<path d="M2386 2244 c-22 -21 -20 -27 4 -12 11 7 20 16 20 20 0 12 -7 10 -24
-8z"/>
<path d="M2648 2216 c-15 -25 -23 -48 -18 -56 6 -10 9 -9 13 1 4 10 6 10 6 2
1 -7 6 -13 13 -13 6 0 3 9 -7 20 -10 11 -13 20 -7 20 7 0 11 3 10 8 -2 13 14
42 21 37 4 -2 8 2 8 10 0 25 -11 17 -39 -29z"/>
<path d="M2709 2223 c-13 -16 -12 -17 4 -4 16 13 21 21 13 21 -2 0 -10 -8 -17
-17z"/>
<path d="M644 2216 c24 -20 13 -34 -11 -15 -17 12 -17 12 -1 -5 9 -10 21 -15
27 -12 17 11 13 24 -11 36 -22 11 -22 10 -4 -4z"/>
<path d="M2224 2204 c9 -6 14 -14 11 -17 -3 -4 -2 -5 2 -2 15 12 10 31 -9 31
-17 0 -17 -2 -4 -12z"/>
<path d="M2144 2191 c1 -17 26 -28 26 -11 0 6 -4 9 -9 5 -5 -3 -11 0 -14 7 -2
9 -4 8 -3 -1z"/>
<path d="M2670 2181 c0 -6 4 -12 8 -15 5 -3 9 1 9 9 0 8 -4 15 -9 15 -4 0 -8
-4 -8 -9z"/>
<path d="M661 2171 c-10 -6 -10 -10 -1 -16 6 -4 9 -13 6 -21 -3 -7 0 -11 7 -8
14 5 20 41 8 48 -4 3 -13 1 -20 -3z"/>
<path d="M2620 2129 c-12 -8 -12 -12 -2 -16 10 -4 10 -8 0 -21 -9 -12 -6 -11
10 2 23 20 30 32 12 21 -5 -3 -10 -2 -10 4 0 5 8 12 18 14 12 3 13 5 2 6 -8 0
-22 -4 -30 -10z"/>
<path d="M2285 2119 c-3 -4 2 -6 10 -5 21 3 28 13 10 13 -9 0 -18 -4 -20 -8z"/>
<path d="M706 2109 c5 -8 9 -16 9 -19 1 -9 34 -65 35 -59 0 14 -30 78 -41 85
-8 5 -9 3 -3 -7z"/>
<path d="M2636 2067 c3 -10 9 -15 12 -12 3 3 0 11 -7 18 -10 9 -11 8 -5 -6z"/>
<path d="M595 2040 c-3 -5 -1 -10 4 -10 6 0 11 5 11 10 0 6 -2 10 -4 10 -3 0
-8 -4 -11 -10z"/>
<path d="M2590 2021 c0 -6 4 -13 10 -16 6 -3 7 1 4 9 -7 18 -14 21 -14 7z"/>
<path d="M595 2009 c-4 -6 -5 -12 -2 -15 2 -3 7 2 10 11 7 17 1 20 -8 4z"/>
<path d="M457 1991 c-4 -17 -3 -21 5 -13 5 5 8 16 6 23 -3 8 -7 3 -11 -10z"/>
<path d="M394 1992 c3 -5 0 -13 -6 -15 -9 -4 -10 -6 -1 -6 17 -1 25 16 12 25
-7 4 -9 3 -5 -4z"/>
<path d="M2573 1973 c-3 -8 -3 -17 1 -20 3 -4 6 1 6 11 0 9 4 15 9 11 5 -3 12
-2 15 3 3 5 -2 9 -10 9 -9 0 -18 -7 -21 -14z"/>
<path d="M362 1964 c10 -10 20 -16 22 -13 3 3 -5 11 -17 18 -21 13 -21 12 -5
-5z"/>
<path d="M405 1961 c-3 -5 -2 -12 3 -15 5 -3 9 1 9 9 0 17 -3 19 -12 6z"/>
<path d="M315 1930 c3 -5 8 -10 11 -10 2 0 4 5 4 10 0 6 -5 10 -11 10 -5 0 -7
-4 -4 -10z"/>
<path d="M2573 1925 c0 -8 4 -12 9 -9 5 3 6 10 3 15 -9 13 -12 11 -12 -6z"/>
<path d="M344 1922 c3 -5 0 -13 -6 -15 -9 -4 -10 -6 -1 -6 17 -1 25 16 12 25
-7 4 -9 3 -5 -4z"/>
<path d="M2512 1880 c0 -14 2 -19 5 -12 2 6 2 18 0 25 -3 6 -5 1 -5 -13z"/>
<path d="M290 1881 c0 -6 4 -13 10 -16 6 -3 7 1 4 9 -7 18 -14 21 -14 7z"/>
<path d="M270 1820 c0 -5 5 -10 11 -10 5 0 7 5 4 10 -3 6 -8 10 -11 10 -2 0
-4 -4 -4 -10z"/>
<path d="M307 1814 c3 -7 9 -14 14 -14 14 0 10 17 -5 23 -10 4 -13 1 -9 -9z"/>
<path d="M2504 1822 c4 -3 14 -7 22 -8 9 -1 13 0 10 4 -4 3 -14 7 -22 8 -9 1
-13 0 -10 -4z"/>
<path d="M307 1753 c5 -12 3 -14 -8 -8 -8 4 -11 4 -6 0 4 -5 16 -10 27 -12 19
-3 19 -2 3 17 -21 24 -24 25 -16 3z"/>
<path d="M2475 1760 c-17 -8 -17 -9 7 -7 15 1 24 5 22 9 -3 4 -6 8 -7 7 -1 0
-11 -4 -22 -9z"/>
<path d="M2496 1727 c3 -10 9 -15 12 -12 3 3 0 11 -7 18 -10 9 -11 8 -5 -6z"/>
<path d="M2515 1689 c-4 -6 -5 -12 -2 -15 2 -3 7 2 10 11 7 17 1 20 -8 4z"/>
<path d="M336 1657 c3 -10 9 -15 12 -12 3 3 0 11 -7 18 -10 9 -11 8 -5 -6z"/>
<path d="M2445 1649 c-15 -24 30 -35 52 -13 13 12 12 14 -4 11 -10 -1 -24 -7
-32 -11 -11 -7 -13 -5 -8 7 7 19 2 23 -8 6z"/>
<path d="M316 1641 c-3 -5 1 -14 8 -20 10 -9 16 -9 21 -1 4 6 1 9 -7 8 -7 -2
-12 3 -10 10 2 14 -4 16 -12 3z"/>
<path d="M349 1603 c-13 -16 -12 -17 4 -4 19 15 24 2 6 -16 -8 -8 -6 -14 9
-22 12 -6 23 -7 26 -2 8 13 -4 20 -22 13 -15 -5 -15 -4 -3 12 9 11 11 20 4 27
-7 7 -15 4 -24 -8z"/>
<path d="M2463 1603 c4 -6 1 -13 -5 -16 -7 -2 0 -4 15 -4 15 0 27 0 25 1 -2 1
-12 8 -22 16 -11 8 -17 10 -13 3z"/>
<path d="M2500 1600 c8 -5 20 -10 25 -10 6 0 3 5 -5 10 -8 5 -19 10 -25 10 -5
0 -3 -5 5 -10z"/>
<path d="M325 1560 c10 -11 20 -20 23 -20 3 0 -3 9 -13 20 -10 11 -20 20 -23
20 -3 0 3 -9 13 -20z"/>
<path d="M2460 1560 c0 -5 5 -10 10 -10 6 0 10 5 10 10 0 6 -4 10 -10 10 -5 0
-10 -4 -10 -10z"/>
<path d="M2490 1566 c0 -2 7 -7 16 -10 8 -3 12 -2 9 4 -6 10 -25 14 -25 6z"/>
<path d="M2455 1500 c3 -4 -2 -13 -10 -20 -8 -7 -12 -16 -9 -22 3 -5 0 -16 -7
-24 -25 -30 -19 -43 11 -26 16 9 24 19 19 23 -17 10 -3 51 21 64 l23 13 -26 0
c-15 0 -25 -4 -22 -8z m-5 -74 c0 -2 -7 -7 -16 -10 -8 -3 -12 -2 -9 4 6 10 25
14 25 6z"/>
<path d="M355 1490 c-3 -6 1 -7 9 -4 18 7 21 14 7 14 -6 0 -13 -4 -16 -10z"/>
<path d="M380 1479 c-12 -8 -11 -9 6 -4 13 3 26 -1 35 -11 12 -15 11 -16 -9
-10 -14 5 -22 3 -22 -4 0 -6 3 -9 8 -7 4 2 18 -7 32 -20 23 -22 23 -24 5 -21
-11 2 -23 8 -27 13 -5 6 -8 5 -8 -3 0 -8 -5 -10 -12 -6 -7 4 -9 3 -5 -2 4 -4
18 -9 30 -11 35 -3 56 -9 63 -16 4 -4 3 -7 -3 -7 -5 0 -15 -11 -21 -25 -10
-21 -9 -27 3 -31 8 -4 12 -11 8 -17 -3 -5 -1 -7 5 -3 6 3 13 2 16 -3 3 -5 -1
-12 -9 -15 -9 -3 -18 1 -21 9 -8 19 -21 19 -21 0 0 -8 3 -13 5 -10 3 3 12 -4
19 -15 8 -11 19 -18 24 -15 5 4 9 2 9 -2 0 -5 -9 -14 -21 -21 -18 -11 -20 -11
-17 5 2 10 -2 17 -9 16 -7 -2 -13 2 -13 9 0 6 -3 9 -6 6 -12 -12 27 -55 49
-54 17 1 22 7 23 31 1 17 3 31 4 33 16 17 -14 64 -36 55 -10 -4 -12 0 -8 11 5
12 11 13 27 5 20 -9 21 -9 4 4 -12 10 -15 17 -7 22 7 4 8 11 2 18 -5 7 -8 20
-7 29 2 10 -1 20 -6 24 -5 3 -6 10 -3 16 4 6 2 8 -3 5 -6 -4 -22 2 -36 13 -29
23 -28 23 -47 9z m77 -41 c12 -20 12 -37 1 -45 -6 -3 -8 -1 -5 4 4 6 0 16 -8
23 -8 7 -15 16 -15 21 0 13 18 11 27 -3z m34 -135 c13 -16 12 -17 -3 -4 -10 7
-18 15 -18 17 0 8 8 3 21 -13z m-1 -38 c-7 -9 -15 -13 -19 -10 -3 3 1 10 9 15
21 14 24 12 10 -5z"/>
<path d="M2490 1479 c0 -5 5 -7 10 -4 6 3 10 8 10 11 0 2 -4 4 -10 4 -5 0 -10
-5 -10 -11z"/>
<path d="M2517 1472 c-15 -16 -15 -19 -2 -19 8 0 13 3 10 5 -3 3 0 11 6 19 17
20 5 16 -14 -5z"/>
<path d="M2470 1451 c0 -6 4 -12 8 -15 5 -3 9 1 9 9 0 8 -4 15 -9 15 -4 0 -8
-4 -8 -9z"/>
<path d="M2460 1400 c0 -5 5 -10 10 -10 6 0 10 5 10 10 0 6 -4 10 -10 10 -5 0
-10 -4 -10 -10z"/>
<path d="M2571 1387 c2 -1 13 -9 24 -17 19 -14 19 -14 6 3 -7 9 -18 17 -24 17
-6 0 -8 -1 -6 -3z"/>
<path d="M433 1359 c-2 -23 3 -25 10 -4 4 8 3 16 -1 19 -4 3 -9 -4 -9 -15z"/>
<path d="M399 1353 c-13 -16 -12 -17 4 -4 9 7 17 15 17 17 0 8 -8 3 -21 -13z"/>
<path d="M2485 1360 c-3 -6 1 -7 9 -4 18 7 21 14 7 14 -6 0 -13 -4 -16 -10z"/>
<path d="M2543 1354 c-2 -6 -14 -10 -26 -8 -21 4 -21 4 -2 -5 14 -6 23 -5 31
5 6 7 13 11 16 8 4 -3 8 -1 12 4 3 5 -2 9 -10 9 -9 0 -18 -6 -21 -13z"/>
<path d="M2626 1358 c3 -5 10 -6 15 -3 13 9 11 12 -6 12 -8 0 -12 -4 -9 -9z"/>
<path d="M2666 1355 c4 -8 11 -15 16 -15 6 0 5 6 -2 15 -7 8 -14 15 -16 15 -2
0 -1 -7 2 -15z"/>
<path d="M2606 1340 c6 -6 20 -12 32 -15 12 -2 27 -7 32 -10 5 -3 18 -1 27 5
17 11 17 11 1 6 -24 -7 -49 3 -41 18 4 6 0 6 -9 -2 -11 -9 -18 -10 -23 -2 -3
5 -11 10 -18 10 -7 0 -8 -3 -1 -10z"/>
<path d="M2563 1293 c-15 -5 -17 -23 -4 -23 5 0 11 7 15 15 3 8 4 15 3 14 -1
0 -8 -3 -14 -6z"/>
<path d="M2755 1270 c-4 -6 -11 -7 -17 -4 -7 4 -8 2 -4 -5 6 -9 11 -9 22 0 14
11 18 19 10 19 -3 0 -8 -5 -11 -10z"/>
<path d="M2760 1220 c-8 -5 -12 -12 -9 -15 4 -3 12 1 19 10 14 17 11 19 -10 5z"/>
<path d="M353 1185 c0 -8 4 -12 9 -9 5 3 6 10 3 15 -9 13 -12 11 -12 -6z"/>
<path d="M2711 1178 c9 -7 15 -21 13 -30 -1 -10 2 -18 6 -18 5 0 7 -8 5 -18
-2 -10 1 -25 7 -33 8 -11 9 -10 4 5 -4 13 -2 17 7 13 8 -3 20 -1 28 4 12 8 12
10 -1 8 -27 -3 -37 1 -38 14 -3 34 -10 50 -28 59 -17 8 -17 8 -3 -4z"/>
<path d="M310 1140 c0 -5 5 -10 10 -10 6 0 10 5 10 10 0 6 -4 10 -10 10 -5 0
-10 -4 -10 -10z"/>
<path d="M266 1084 c3 -34 8 -38 24 -19 11 13 10 14 -4 9 -12 -4 -15 -2 -10 9
3 8 1 18 -4 21 -5 3 -8 -6 -6 -20z"/>
<path d="M231 1067 c-13 -21 -12 -21 5 -5 10 10 16 20 13 22 -3 3 -11 -5 -18
-17z"/>
<path d="M2750 1060 c-11 -7 -11 -10 -2 -10 7 0 11 -4 8 -8 -2 -4 4 -8 15 -8
18 0 18 2 5 12 -9 6 -13 14 -9 17 9 10 0 8 -17 -3z"/>
<path d="M236 998 c3 -4 11 -5 19 -1 21 7 19 12 -4 10 -11 0 -18 -5 -15 -9z"/>
<path d="M302 985 c4 -4 -1 -15 -10 -24 -10 -9 -16 -15 -13 -14 2 2 10 -2 18
-8 10 -9 13 -8 13 0 0 7 5 9 10 6 7 -4 7 -11 2 -18 -12 -15 -11 -47 0 -47 5 0
6 10 3 23 -6 18 -5 20 6 10 26 -25 18 -50 -14 -44 -5 1 -6 -3 -2 -9 4 -7 12
-7 26 0 11 6 17 15 14 21 -4 5 0 9 7 9 7 0 2 7 -10 16 -12 8 -20 19 -17 24 3
4 -2 13 -10 20 -8 7 -13 16 -10 20 3 5 0 12 -7 16 -7 4 -10 4 -6 -1z"/>
<path d="M2730 979 c0 -5 5 -7 10 -4 6 3 10 8 10 11 0 2 -4 4 -10 4 -5 0 -10
-5 -10 -11z"/>
<path d="M250 959 c0 -5 5 -7 10 -4 6 3 10 8 10 11 0 2 -4 4 -10 4 -5 0 -10
-5 -10 -11z"/>
<path d="M2666 960 c5 -8 9 -18 9 -22 0 -3 3 -9 7 -13 3 -4 5 0 4 9 -1 9 -8
22 -16 29 -10 10 -11 9 -4 -3z"/>
<path d="M2621 917 c-13 -21 -12 -21 5 -5 10 10 16 20 13 22 -3 3 -11 -5 -18
-17z"/>
<path d="M270 919 c0 -5 5 -7 10 -4 6 3 10 8 10 11 0 2 -4 4 -10 4 -5 0 -10
-5 -10 -11z"/>
<path d="M2473 868 c-15 -15 -23 -31 -20 -35 4 -3 -2 -17 -14 -29 -13 -14 -17
-24 -10 -29 6 -3 9 -11 6 -16 -4 -5 -1 -9 4 -9 14 0 14 13 -1 28 -7 7 -8 12
-2 12 6 0 15 -5 22 -12 9 -9 12 -9 12 0 0 7 -4 12 -10 12 -5 0 -10 5 -10 11 0
6 7 9 15 5 13 -4 13 -2 5 14 -15 28 -12 37 5 14 8 -10 15 -14 15 -7 0 6 9 15
20 18 11 4 19 14 18 22 -2 9 3 18 10 20 8 3 10 -2 6 -14 -4 -13 -3 -14 4 -5 5
8 13 13 18 12 5 -1 9 3 11 9 1 7 0 8 -4 1 -2 -5 -10 -7 -16 -3 -24 16 -58 8
-84 -19z m30 -15 c-24 -18 -37 -4 -17 18 13 15 19 17 26 7 4 -8 1 -18 -9 -25z"/>
<path d="M2594 868 l-19 -23 23 19 c21 18 27 26 19 26 -2 0 -12 -10 -23 -22z"/>
<path d="M387 856 c-3 -8 -2 -18 4 -22 16 -9 22 2 11 21 -8 15 -10 16 -15 1z"/>
<path d="M2530 840 c-9 -6 -10 -10 -3 -10 6 0 15 5 18 10 8 12 4 12 -15 0z"/>
<path d="M415 740 c3 -5 8 -10 11 -10 2 0 4 5 4 10 0 6 -5 10 -11 10 -5 0 -7
-4 -4 -10z"/>
<path d="M2465 740 c-3 -6 1 -7 9 -4 18 7 21 14 7 14 -6 0 -13 -4 -16 -10z"/>
<path d="M2410 699 c0 -5 5 -7 10 -4 6 3 10 8 10 11 0 2 -4 4 -10 4 -5 0 -10
-5 -10 -11z"/>
<path d="M479 673 c-13 -17 -13 -17 6 -3 11 8 22 16 24 17 2 2 0 3 -6 3 -6 0
-17 -8 -24 -17z"/>
<path d="M2324 602 c4 -3 14 -7 22 -8 9 -1 13 0 10 4 -4 3 -14 7 -22 8 -9 1
-13 0 -10 -4z"/>
<path d="M2287 550 c-3 -11 -3 -20 -1 -20 2 0 8 9 14 20 6 11 7 20 2 20 -6 0
-12 -9 -15 -20z"/>
<path d="M2310 545 c0 -7 30 -13 34 -7 3 4 -4 9 -15 9 -10 1 -19 0 -19 -2z"/>
<path d="M2305 520 c3 -5 8 -10 11 -10 2 0 4 5 4 10 0 6 -5 10 -11 10 -5 0 -7
-4 -4 -10z"/>
<path d="M455 509 c-4 -6 -5 -12 -2 -15 2 -3 7 2 10 11 7 17 1 20 -8 4z"/>
<path d="M475 500 c-3 -6 1 -7 9 -4 18 7 21 14 7 14 -6 0 -13 -4 -16 -10z"/>
<path d="M503 492 c-8 -5 -9 -13 -3 -22 8 -13 10 -13 10 2 0 9 6 19 13 21 6 3
8 6 2 6 -5 0 -15 -3 -22 -7z"/>
<path d="M2231 477 c-6 -6 -21 -12 -31 -12 -20 0 -22 -7 -13 -33 4 -9 9 -8 19
5 11 15 15 15 22 5 7 -11 10 -10 15 3 4 9 3 13 -3 10 -6 -3 -10 -2 -10 4 0 5
6 11 13 14 6 2 9 7 6 10 -3 4 -11 1 -18 -6z m-21 -23 c0 -8 -19 -13 -24 -6 -3
5 1 9 9 9 8 0 15 -2 15 -3z"/>
<path d="M585 470 c-3 -5 -13 -6 -23 -3 -14 4 -13 3 3 -10 10 -8 26 -12 34 -9
9 3 12 1 7 -6 -3 -6 -2 -13 3 -16 5 -4 8 2 7 11 -2 9 -8 19 -14 21 -7 2 -10 8
-6 13 3 5 3 9 0 9 -3 0 -7 -4 -11 -10z"/>
<path d="M643 453 c-16 -6 -17 -33 -2 -33 5 0 8 4 4 9 -3 5 -1 12 3 15 5 3 14
-6 20 -19 7 -16 17 -23 27 -19 8 3 15 8 15 11 0 3 -7 2 -16 -1 -12 -5 -15 -2
-10 10 3 8 6 18 6 21 0 2 7 -3 16 -11 8 -9 20 -14 25 -11 5 4 9 1 9 -5 0 -6
-7 -13 -15 -16 -8 -4 -15 -11 -15 -16 0 -7 5 -6 13 1 10 8 17 7 27 -2 12 -10
12 -9 2 4 -11 14 -9 17 12 17 15 0 28 -9 34 -22 6 -11 11 -15 11 -8 1 21 -71
82 -84 72 -7 -6 -16 -5 -23 2 -8 8 -13 7 -18 -6 -5 -14 -8 -14 -18 -2 -6 7
-17 12 -23 9z m113 -25 c19 -23 19 -23 -2 -5 -11 9 -24 14 -29 10 -4 -5 -5 -2
-1 5 9 16 10 16 32 -10z"/>
<path d="M535 440 c-4 -6 1 -7 11 -3 13 5 15 3 9 -7 -5 -9 -4 -11 4 -6 6 4 9
12 6 17 -8 12 -22 12 -30 -1z"/>
<path d="M2256 442 c-3 -5 1 -9 9 -9 8 0 12 4 9 9 -3 4 -7 8 -9 8 -2 0 -6 -4
-9 -8z"/>
<path d="M579 428 c-8 -27 -5 -36 9 -30 10 4 12 7 4 10 -7 2 -10 8 -6 13 3 5
3 9 0 9 -3 0 -6 -1 -7 -2z"/>
<path d="M810 416 c0 -21 25 -37 46 -30 16 6 17 5 7 -7 -18 -18 -16 -30 3 -27
10 2 19 -3 21 -10 3 -8 -1 -10 -14 -5 -19 7 -18 5 11 -17 11 -8 17 -10 13 -4
-4 7 0 15 9 18 24 9 28 7 15 -8 -9 -10 -9 -16 -1 -21 6 -4 8 -16 5 -28 -4 -13
-3 -17 2 -11 4 6 16 10 26 8 18 -2 24 12 6 18 -5 2 -11 12 -13 22 -1 10 -11
25 -21 32 -10 8 -15 14 -10 14 4 0 0 9 -10 20 -10 11 -21 18 -25 15 -3 -2 -21
5 -38 15 -24 15 -32 16 -32 6z m35 -24 c-3 -3 -11 0 -18 7 -9 10 -8 11 6 5 10
-3 15 -9 12 -12z m40 -12 c-3 -5 0 -10 8 -10 7 0 14 -7 14 -15 0 -13 -2 -13
-17 0 -9 8 -21 12 -25 8 -5 -5 -3 0 4 10 14 18 26 24 16 7z m52 -65 c0 -8 -4
-12 -9 -9 -5 3 -6 10 -3 15 9 13 12 11 12 -6z"/>
<path d="M615 400 c3 -5 8 -10 11 -10 2 0 4 5 4 10 0 6 -5 10 -11 10 -5 0 -7
-4 -4 -10z"/>
<path d="M640 406 c0 -2 7 -7 16 -10 8 -3 12 -2 9 4 -6 10 -25 14 -25 6z"/>
<path d="M2156 394 c-22 -22 -20 -31 2 -11 10 10 22 14 25 10 4 -3 7 -1 7 5 0
17 -16 15 -34 -4z"/>
<path d="M780 370 c6 -11 13 -20 16 -20 2 0 0 9 -6 20 -6 11 -13 20 -16 20 -2
0 0 -9 6 -20z"/>
<path d="M815 360 c-3 -6 1 -7 9 -4 18 7 21 14 7 14 -6 0 -13 -4 -16 -10z"/>
<path d="M2070 360 c-12 -7 -10 -9 7 -7 12 0 19 5 17 9 -6 10 -6 10 -24 -2z"/>
<path d="M820 340 c-9 -6 -10 -10 -3 -10 6 0 15 5 18 10 8 12 4 12 -15 0z"/>
<path d="M1600 310 c-9 -6 -10 -10 -3 -10 6 0 15 5 18 10 8 12 4 12 -15 0z"/>
<path d="M1636 308 c3 -5 9 -7 12 -4 3 3 12 0 21 -6 13 -10 14 -10 4 2 -15 16
-46 23 -37 8z"/>
<path d="M1975 310 c-15 -25 -14 -79 3 -92 13 -11 14 -11 7 1 -6 11 -4 13 9 8
11 -4 15 -3 11 4 -4 6 -13 8 -21 5 -19 -7 -18 4 3 19 14 10 20 9 35 -9 19 -21
19 -20 1 9 -17 27 -17 29 -1 22 10 -3 20 -2 23 3 3 4 -7 7 -21 5 -18 -2 -28 3
-33 18 -6 16 -10 17 -16 7z m14 -24 c9 -10 8 -15 -2 -19 -8 -3 -13 3 -13 14 0
23 0 23 15 5z"/>
<path d="M867 299 c7 -7 15 -10 18 -7 3 3 -2 9 -12 12 -14 6 -15 5 -6 -5z"/>
<path d="M1185 252 c-6 -6 4 -22 15 -22 4 0 10 6 13 13 5 13 -17 20 -28 9z"/>
<path d="M1256 252 c-3 -5 1 -9 9 -9 8 0 12 4 9 9 -3 4 -7 8 -9 8 -2 0 -6 -4
-9 -8z"/>
<path d="M1626 242 c-3 -4 4 -9 15 -9 23 -2 25 3 4 10 -8 4 -16 3 -19 -1z"/>
<path d="M1134 226 c-10 -8 -23 -14 -28 -15 -13 -1 -17 -29 -5 -37 5 -3 17 0
26 6 15 9 14 10 -7 4 -22 -6 -23 -5 -11 9 10 13 18 14 32 6 11 -5 17 -14 14
-19 -3 -5 0 -12 6 -16 8 -5 9 -3 4 6 -6 10 -3 12 11 7 15 -6 15 -4 -4 11 -16
13 -20 20 -11 29 17 17 -5 24 -27 9z m21 -6 c-3 -5 -12 -10 -18 -10 -7 0 -6 4
3 10 19 12 23 12 15 0z"/>
<path d="M930 220 c0 -5 5 -10 11 -10 5 0 7 5 4 10 -3 6 -8 10 -11 10 -2 0 -4
-4 -4 -10z"/>
<path d="M1004 208 c-4 -6 -3 -8 4 -4 9 5 28 -29 25 -45 -1 -3 4 -6 12 -6 11
0 11 4 -1 22 -8 12 -12 24 -9 27 3 3 -1 8 -9 11 -9 4 -18 1 -22 -5z"/>
<path d="M1576 207 c3 -10 9 -15 12 -12 3 3 0 11 -7 18 -10 9 -11 8 -5 -6z"/>
<path d="M1050 198 c0 -23 17 -31 24 -12 4 9 4 19 1 22 -3 3 -5 -1 -5 -9 0
-11 -2 -11 -10 1 -8 13 -10 13 -10 -2z"/>
<path d="M1432 172 c-15 -24 -16 -29 -5 -16 10 11 27 20 36 18 15 -2 16 0 5
14 -7 9 -13 18 -13 19 0 1 -11 -15 -23 -35z"/>
<path d="M1475 200 c3 -5 8 -10 11 -10 2 0 4 5 4 10 0 6 -5 10 -11 10 -5 0 -7
-4 -4 -10z"/>
<path d="M1501 193 c0 -11 3 -13 6 -5 2 6 10 9 15 6 7 -4 8 -2 4 4 -11 18 -26
14 -25 -5z"/>
<path d="M1675 200 c3 -5 8 -10 11 -10 2 0 4 5 4 10 0 6 -5 10 -11 10 -5 0 -7
-4 -4 -10z"/>
<path d="M1995 201 c-3 -5 -2 -12 3 -15 5 -3 9 1 9 9 0 17 -3 19 -12 6z"/>
<path d="M1696 183 c-6 -14 -5 -15 5 -6 7 7 10 15 7 18 -3 3 -9 -2 -12 -12z"/>
<path d="M996 182 c-3 -5 1 -9 9 -9 8 0 12 4 9 9 -3 4 -7 8 -9 8 -2 0 -6 -4
-9 -8z"/>
<path d="M1273 183 c4 -3 1 -13 -6 -22 -11 -14 -10 -14 6 -2 20 15 22 31 5 31
-6 0 -8 -3 -5 -7z"/>
<path d="M1235 170 c-4 -6 -11 -7 -17 -4 -7 4 -8 2 -4 -5 6 -9 11 -9 22 0 14
11 18 19 10 19 -3 0 -8 -5 -11 -10z"/>
<path d="M1750 176 c0 -3 9 -10 20 -16 11 -6 20 -8 20 -6 0 3 -9 10 -20 16
-11 6 -20 8 -20 6z"/>
<path d="M1075 160 c-3 -5 -1 -10 4 -10 6 0 11 5 11 10 0 6 -2 10 -4 10 -3 0
-8 -4 -11 -10z"/>
<path d="M1305 140 c-3 -6 1 -7 9 -4 18 7 21 14 7 14 -6 0 -13 -4 -16 -10z"/>
<path d="M1450 140 c0 -5 5 -10 11 -10 5 0 7 5 4 10 -3 6 -8 10 -11 10 -2 0
-4 -4 -4 -10z"/>
<path d="M1795 120 c3 -5 8 -10 11 -10 2 0 4 5 4 10 0 6 -5 10 -11 10 -5 0 -7
-4 -4 -10z"/>
</g>
</svg>
